<svg width="675" height="1138" viewBox="0 0 675 1138" fill="none" xmlns="http://www.w3.org/2000/svg">
<path d="M208.213 456.18L221.119 463.436C250.141 495.459 205.241 538.298 183.141 499.611L180.342 491.066C179.151 499.981 174.276 507.382 167.66 512.03L160.563 515.69C170.951 518.519 178.773 529.487 180.142 541.501L183.915 529.85C199.758 501.393 237.738 521.272 228.662 553.83C222.008 577.649 193.111 579.808 183.17 558.024L180.154 547.676C178.69 559.808 170.331 571.569 159.477 573.327L167.435 578.076C182.117 588.599 182.839 613.348 168.851 625.087C153.48 637.978 133.093 628.076 129.373 607.175C122.498 639.528 83.7724 638.774 78.3858 605.943C72.9263 638.516 36.1677 639.829 27.3818 608.829C23.9186 626.785 6.0668 635.42 -8.29214 628.03C-27.8588 617.916 -27.0476 582.537 -6.62707 574.727L-6.0225 572.671C-10.7916 572.137 -16.0999 566.584 -18.8783 562.241C-20.8789 559.145 -21.5729 555.54 -23.8368 553.043C-26.2644 563.627 -34.6426 570.842 -43.6346 573.036C-21.287 577.457 -15.6545 614.062 -36.0551 626.247C-63.1811 642.437 -86.5055 602.33 -64.1232 579.217L-52.5412 572.486C-61.8184 571.377 -68.9057 563.244 -72.334 553.58C-73.1819 551.218 -72.6118 548.433 -74.3567 546.667C-77.1617 577.235 -115.422 581.286 -122.685 551.622C-132.332 512.213 -78.9781 499.473 -74.332 540.449C-72.5732 538.697 -73.1212 535.907 -72.2545 533.552C-68.825 524.088 -62.7606 517.593 -54.1017 514.796L-61.1694 511.123C-68.0831 506.206 -72.749 498.425 -73.6809 489.029C-75.1738 489.495 -74.5533 492.843 -75.2697 494.898C-82.3952 515.199 -105.824 520.338 -117.908 503.135C-131.177 484.212 -120.075 457.494 -99.456 455.946C-99.8587 454.101 -103.031 455.074 -104.818 454.424C-121.567 448.182 -127.811 424.783 -116.268 409.046C-104.724 393.31 -85.1291 396.218 -75.99 413.323L-72.4836 422.086C-71.7482 415.227 -68.2168 408.293 -63.4662 404.109C-59.1271 400.267 -54.6889 399.641 -50.0188 396.957C-76.5834 393.764 -80.0618 349.748 -54.2714 341.358C-20.0086 330.215 -8.99475 391.588 -44.614 396.979C-40.3005 399.612 -35.7926 400.23 -31.6689 403.721C-27.2853 407.469 -24.3262 413.228 -22.7842 419.195C-19.2764 408.788 -12.6046 399.508 -2.57004 397.617L-14.5022 389.25C-40.9997 350.332 14.5664 315.556 28.026 361.756C30.761 358.25 31.5614 353.793 34.3349 349.987C48.7269 330.23 77.4251 340.551 79.4112 366.12C84.8019 332.088 124.092 331.601 130.407 365.293C131.783 356.592 135.84 348.76 142.865 344.542C175.072 325.327 198.546 384.176 159.802 397.275C158.496 397.698 158.239 396.625 158.489 399.328C165.088 399.183 172.593 405.217 176.185 411.407C178.702 415.706 179.316 420.683 181.199 425.151C183.194 401.442 209.365 391.253 223.76 408.336C238.155 425.419 228.83 455.061 208.362 456.138L208.213 456.18ZM181.277 480.733C181.963 467.484 192.619 459.292 202.843 456.63C191.778 455.343 181.495 444.666 181.473 431.328L175.152 446.227C171.704 451.017 167.516 454.174 162.587 456.471C169.097 459.713 175.04 465.012 178.216 472.444C179.398 475.15 179.308 479.096 181.277 480.733ZM151.184 399.299C151.455 396.598 151.19 397.669 149.887 397.235C139.055 393.461 131.922 387.472 130.71 373.528L122.966 389.838L111.867 397.128L122.126 404.331C125.317 408.117 129.401 412.165 129.677 417.784C132.106 416.164 132.456 412.606 134.181 410.082C137.967 404.522 144.922 399.103 151.221 399.342L151.184 399.299ZM129.824 596.841C130.802 585.222 139.372 576.85 148.703 573.756C139.467 571.618 134.541 563.621 129.093 555.666C126.863 563.334 120.347 570.985 113.48 573.102L112.876 575.158C118.092 575.779 124.103 582.665 126.431 587.864C127.65 590.57 127.632 595.031 129.787 596.84L129.824 596.841ZM129.183 533.064C134.393 525.837 139.272 517.279 148.038 515.641C147.635 513.967 144.912 514.427 143.201 513.477C138.292 510.713 132.872 505.159 131.069 499.105C126.57 505.691 122.259 511.807 115.794 516.028C121.519 519.824 127.163 525.465 129.145 533.064L129.183 533.064ZM131.213 472.343L137.514 462.59L146.486 455.978C137.959 453.757 134.15 445.893 129.558 438.413C128.705 446.815 121.53 451.204 116.96 456.89C123.585 459.361 126.836 466.922 131.212 472.386L131.213 472.343ZM78.6562 415.523C83.98 407.782 88.7803 400.424 97.514 397.585C87.764 393.515 80.905 384.224 79.2749 372.295C78.2219 384.042 71.1028 393.321 61.7304 397.443C69.1746 400.175 76.2685 406.636 78.6935 415.523L78.6562 415.523ZM95.021 575.087L94.4328 573.026C88.7975 574.719 80.403 557.831 79.3978 557.527C77.7968 557.049 74.3321 565.999 72.5754 567.193L62.7804 574.488C71.3386 578.296 76.8937 587.41 78.3439 597.709C80.396 587.81 85.7313 577.152 94.9836 575.13L95.021 575.087ZM79.9512 530.767C82.1397 524.086 87.3772 519.303 92.5347 515.892C87.5176 512.098 82.9496 507.834 79.6181 501.946C75.9814 507.249 72.0446 513.024 66.5917 515.747C71.4224 519.54 75.6552 523.717 78.0902 530.074L79.9514 530.725L79.9512 530.767ZM78.5583 440.226C77.0413 446.782 72.2892 451.352 67.764 455.108L79.7859 469.052C83.0122 463.832 86.9073 459.173 91.9137 456.276L78.5581 440.269L78.5583 440.226ZM9.84225 397.709C18.0735 399.372 24.1227 406.086 28.1161 414.251C32.3211 406.633 37.7533 399.75 45.6279 397.337C41.6853 395.177 37.8925 392.846 34.888 389.103C31.5869 384.972 30.7108 380.294 27.8197 376.165C27.4264 381.353 24.4281 385.459 21.8405 389.394L9.84242 397.667L9.84225 397.709ZM26.9544 594.417C29.6882 591.211 30.2272 586.882 32.777 583.075C35.3268 579.268 39.178 576.281 43.1366 574.41C36.3295 570.823 30.9102 565.055 27.5486 557.364C24.0554 564.084 18.8821 571.483 11.8321 572.742L12.4203 574.803C19.6053 577.104 26.2807 585.708 26.9917 594.417L26.9544 594.417ZM28.1022 530.562C30.0682 523.579 35.339 519.783 39.7931 515.169C35.1021 513.735 30.2434 507.583 28.2124 502.771L26.9077 502.766C23.7585 507.342 20.3483 511.918 15.3453 513.957L14.7779 516.056L20.1312 519.68L28.1023 530.519L28.1022 530.562ZM28.3139 467.775C30.2358 462.508 35.2464 458.539 39.0999 454.952C34.1938 451.373 31.1194 446.471 27.9726 441.012C24.8144 447.862 20.2136 451.875 14.94 456.357C17.7331 457.011 20.8902 459.855 23.0063 462.007C24.1942 463.256 26.5941 469.055 28.314 467.732L28.3139 467.775ZM-22.665 473.749C-20.6199 465.608 -14.8175 459.37 -8.28017 455.793C-15.4943 451.433 -20.0507 444.253 -22.9614 435.664C-25.1988 445.304 -31.6749 452.227 -39.5909 455.669L-30.6694 461.88L-22.7023 473.749L-22.665 473.749ZM-8.51891 516.006L-9.06972 513.903C-15.4689 510.832 -20.8841 504.035 -22.755 496.436L-31.3025 508.711C-34.2951 511.401 -37.6589 513.661 -41.5736 513.86L-31.3141 521.063C-27.7504 524.765 -24.8596 528.979 -23.7633 534.516C-21.3281 531.395 -20.3816 527.711 -17.945 524.246C-15.6584 521.039 -12.0278 517.279 -8.51908 516.049L-8.51891 516.006ZM-73.6853 480.752C-72.4441 468.534 -65.1427 460.285 -55.6935 455.605C-64.7363 451.795 -70.9646 443.236 -73.0462 432.377C-75.8137 444.074 -84.7301 455.404 -95.9481 454.931C-93.349 457.515 -89.7721 457.872 -86.4255 459.944C-82.0005 462.663 -78.9956 466.278 -76.7797 471.476L-73.7226 480.752L-73.6853 480.752Z" fill="#F779AE"/>
<path d="M28.7107 660.44C28.6493 675.925 39.3692 688.521 52.6542 688.574C65.9393 688.626 76.7588 676.116 76.8202 660.631C76.8816 645.146 66.1617 632.55 52.8766 632.497C39.5915 632.445 28.7721 644.955 28.7107 660.44Z" fill="#F779AE"/>
<path d="M79.007 660.64C78.9457 676.125 89.6655 688.721 102.951 688.773C116.236 688.826 127.055 676.315 127.117 660.83C127.178 645.345 116.458 632.749 103.173 632.697C89.8879 632.644 79.0684 645.155 79.007 660.64Z" fill="#F779AE"/>
<path d="M30.099 310.274C30.0376 325.759 40.7575 338.355 54.0426 338.407C67.3277 338.46 78.1471 325.95 78.2085 310.464C78.2699 294.979 67.55 282.384 54.2649 282.331C40.9799 282.278 30.1604 294.789 30.099 310.274Z" fill="#F779AE"/>
<path d="M-21.5856 660.241C-21.647 675.726 -10.9271 688.322 2.35798 688.374C15.6431 688.427 26.4625 675.917 26.5239 660.432C26.5853 644.946 15.8654 632.351 2.58032 632.298C-10.7048 632.245 -21.5242 644.756 -21.5856 660.241Z" fill="#F779AE"/>
<path d="M182.019 602.478C181.957 617.963 192.677 630.559 205.962 630.612C219.247 630.665 230.067 618.154 230.128 602.669C230.189 587.184 219.47 574.588 206.185 574.536C192.899 574.483 182.08 586.993 182.019 602.478Z" fill="#F779AE"/>
<path d="M80.3929 311.096C80.3329 326.237 91.0539 338.554 104.339 338.607C117.624 338.659 128.442 326.428 128.502 311.287C128.562 296.146 117.841 283.829 104.556 283.776C91.2713 283.724 80.453 295.955 80.3929 311.096Z" fill="#F779AE"/>
<path d="M182.943 369.449C182.881 384.935 193.601 397.53 206.886 397.583C220.171 397.636 230.991 385.125 231.052 369.64C231.113 354.155 220.394 341.559 207.108 341.507C193.823 341.454 183.004 353.964 182.943 369.449Z" fill="#F779AE"/>
<path d="M-20.1948 309.451C-20.2548 324.592 -9.53378 336.909 3.75129 336.962C17.0364 337.014 27.8547 324.783 27.9147 309.642C27.9748 294.501 17.2538 282.184 3.96868 282.131C-9.31639 282.079 -20.1347 294.31 -20.1948 309.451Z" fill="#F779AE"/>
<path d="M232.777 486.163C232.717 501.304 243.438 513.621 256.723 513.674C270.008 513.727 280.826 501.495 280.886 486.354C280.946 471.213 270.225 458.896 256.94 458.844C243.655 458.791 232.837 471.022 232.777 486.163Z" fill="#F779AE"/>
<path d="M232.545 544.732C232.485 559.873 243.206 572.19 256.491 572.243C269.776 572.295 280.594 560.064 280.654 544.923C280.714 529.782 269.993 517.465 256.708 517.412C243.423 517.36 232.605 529.591 232.545 544.732Z" fill="#F779AE"/>
<path d="M131.488 661.471C131.428 676.612 141.659 688.927 154.34 688.977C167.021 689.027 177.35 676.794 177.41 661.653C177.47 646.512 167.239 634.197 154.558 634.147C141.876 634.096 131.548 646.33 131.488 661.471Z" fill="#F779AE"/>
<path d="M233.007 428.218C232.948 443.015 243.181 455.05 255.862 455.101C268.543 455.151 278.871 443.197 278.929 428.4C278.988 413.603 268.755 401.567 256.074 401.517C243.393 401.466 233.065 413.421 233.007 428.218Z" fill="#F779AE"/>
<path d="M132.876 311.304C132.816 326.445 143.047 338.76 155.729 338.811C168.41 338.861 178.739 326.627 178.799 311.486C178.859 296.345 168.627 284.03 155.946 283.98C143.265 283.93 132.936 296.163 132.876 311.304Z" fill="#F779AE"/>
<path d="M233.239 369.649C233.18 384.446 243.902 396.484 257.187 396.536C270.472 396.589 281.29 384.636 281.348 369.84C281.407 355.043 270.685 343.005 257.4 342.952C244.115 342.899 233.298 354.852 233.239 369.649Z" fill="#F779AE"/>
<path d="M232.315 602.678C232.256 617.475 242.489 629.511 255.17 629.561C267.851 629.611 278.179 617.657 278.238 602.86C278.296 588.063 268.064 576.027 255.383 575.977C242.701 575.926 232.374 587.881 232.315 602.678Z" fill="#F779AE"/>
<path d="M181.786 661.047C181.728 675.844 191.96 687.88 204.642 687.93C217.323 687.981 227.65 676.026 227.709 661.229C227.768 646.432 217.535 634.396 204.854 634.346C192.173 634.296 181.845 646.25 181.786 661.047Z" fill="#F779AE"/>
<path d="M183.172 311.504C183.115 325.956 193.349 337.713 206.03 337.764C218.711 337.814 229.038 326.139 229.095 311.686C229.152 297.233 218.919 285.476 206.237 285.426C193.556 285.375 183.23 297.051 183.172 311.504Z" fill="#F779AE"/>
<path d="M30.6677 718.395C30.6104 732.847 40.8441 744.604 53.5253 744.655C66.2066 744.705 76.5332 733.029 76.5905 718.577C76.6478 704.124 66.4141 692.367 53.7329 692.317C41.0516 692.266 30.725 703.942 30.6677 718.395Z" fill="#F779AE"/>
<path d="M32.5156 252.337C32.4583 266.789 42.2025 278.545 54.2798 278.592C66.3571 278.64 76.1942 266.963 76.2515 252.51C76.3088 238.057 66.5647 226.302 54.4873 226.254C42.41 226.206 32.5729 237.884 32.5156 252.337Z" fill="#F779AE"/>
<path d="M-19.6286 718.195C-19.6859 732.648 -9.45222 744.405 3.22899 744.455C15.9102 744.505 26.2368 732.83 26.2941 718.377C26.3514 703.924 16.1177 692.167 3.4365 692.117C-9.24471 692.067 -19.5713 703.742 -19.6286 718.195Z" fill="#F779AE"/>
<path d="M80.9641 718.594C80.9068 733.047 91.1404 744.804 103.822 744.854C116.503 744.904 126.829 733.229 126.887 718.776C126.944 704.323 116.71 692.566 104.029 692.516C91.3479 692.466 81.0214 704.141 80.9641 718.594Z" fill="#F779AE"/>
<path d="M285.26 486.371C285.203 500.824 294.947 512.579 307.024 512.627C319.101 512.675 328.939 500.998 328.996 486.545C329.053 472.092 319.309 460.337 307.232 460.289C295.154 460.241 285.317 471.919 285.26 486.371Z" fill="#F779AE"/>
<path d="M-17.7807 252.137C-17.838 266.59 -8.09385 278.345 3.98349 278.393C16.0608 278.441 25.8979 266.763 25.9552 252.311C26.0125 237.858 16.2683 226.103 4.191 226.055C-7.88634 226.007 -17.7234 237.685 -17.7807 252.137Z" fill="#F779AE"/>
<path d="M82.812 252.536C82.7547 266.989 92.9883 278.746 105.67 278.796C118.351 278.846 128.677 267.171 128.735 252.718C128.792 238.265 118.558 226.508 105.877 226.458C93.1959 226.408 82.8693 238.083 82.812 252.536Z" fill="#F779AE"/>
<path d="M285.49 428.426C285.434 442.534 295.179 454.01 307.256 454.058C319.334 454.106 329.17 442.708 329.226 428.599C329.282 414.49 319.536 403.014 307.459 402.966C295.382 402.919 285.546 414.317 285.49 428.426Z" fill="#F779AE"/>
<path d="M285.028 544.94C284.97 559.393 294.715 571.148 306.792 571.196C318.869 571.244 328.706 559.566 328.764 545.114C328.821 530.661 319.077 518.906 306.999 518.858C294.922 518.81 285.085 530.487 285.028 544.94Z" fill="#F779AE"/>
<path d="M131.255 720.04C131.198 734.492 141.432 746.249 154.113 746.3C166.794 746.35 177.121 734.674 177.178 720.222C177.235 705.769 167.002 694.012 154.321 693.962C141.639 693.911 131.313 705.587 131.255 720.04Z" fill="#F779AE"/>
<path d="M133.111 252.112C133.055 266.221 143.29 277.699 155.971 277.749C168.652 277.8 178.977 266.403 179.033 252.295C179.089 238.186 168.855 226.708 156.173 226.658C143.492 226.607 133.167 238.004 133.111 252.112Z" fill="#F779AE"/>
<path d="M232.083 661.247C232.027 675.355 242.262 686.833 254.943 686.884C267.624 686.934 277.949 675.537 278.005 661.429C278.061 647.32 267.827 635.842 255.145 635.792C242.464 635.741 232.139 647.138 232.083 661.247Z" fill="#F779AE"/>
<path d="M235.655 311.712C235.601 325.476 245.347 336.674 257.424 336.721C269.502 336.769 279.337 325.65 279.391 311.885C279.446 298.121 269.699 286.924 257.622 286.876C245.545 286.828 235.71 297.947 235.655 311.712Z" fill="#F779AE"/>
<path d="M284.798 602.886C284.742 616.995 294.487 628.471 306.565 628.519C318.642 628.566 328.478 617.168 328.534 603.059C328.59 588.951 318.845 577.475 306.767 577.427C294.69 577.379 284.854 588.777 284.798 602.886Z" fill="#F779AE"/>
<path d="M285.722 369.857C285.666 383.966 295.411 395.442 307.489 395.49C319.566 395.537 329.402 384.139 329.458 370.03C329.514 355.922 319.769 344.446 307.691 344.398C295.614 344.35 285.778 355.748 285.722 369.857Z" fill="#F779AE"/>
<path d="M183.739 720.248C183.684 734.012 193.43 745.209 205.508 745.257C217.585 745.305 227.42 734.186 227.474 720.421C227.529 706.657 217.783 695.459 205.705 695.411C193.628 695.364 183.793 706.483 183.739 720.248Z" fill="#F779AE"/>
<path d="M185.591 252.944C185.537 266.708 195.283 277.905 207.36 277.953C219.438 278.001 229.273 266.882 229.327 253.117C229.382 239.353 219.635 228.155 207.558 228.107C195.481 228.06 185.646 239.179 185.591 252.944Z" fill="#F779AE"/>
<path d="M337.743 486.579C337.689 500.344 346.945 511.539 358.419 511.585C369.892 511.63 379.238 500.509 379.292 486.744C379.347 472.98 370.09 461.785 358.616 461.739C347.143 461.694 337.798 472.815 337.743 486.579Z" fill="#F779AE"/>
<path d="M30.4331 777.586C30.3799 791.007 40.1273 801.925 52.2047 801.973C64.282 802.021 74.1158 791.18 74.169 777.76C74.2222 764.339 64.4747 753.421 52.3974 753.373C40.32 753.325 30.4863 764.166 30.4331 777.586Z" fill="#F779AE"/>
<path d="M337.973 428.634C337.92 442.054 347.178 452.97 358.651 453.016C370.125 453.061 379.469 442.219 379.522 428.799C379.575 415.378 370.317 404.462 358.844 404.416C347.37 404.371 338.026 415.213 337.973 428.634Z" fill="#F779AE"/>
<path d="M82.9162 777.795C82.863 791.215 92.1209 802.131 103.594 802.177C115.068 802.222 124.412 791.38 124.465 777.959C124.519 764.539 115.261 753.623 103.787 753.577C92.3136 753.532 82.9694 764.374 82.9162 777.795Z" fill="#F779AE"/>
<path d="M337.511 545.148C337.456 558.913 346.713 570.108 358.187 570.154C369.66 570.199 379.005 559.078 379.06 545.313C379.115 531.549 369.858 520.353 358.384 520.308C346.911 520.262 337.565 531.384 337.511 545.148Z" fill="#F779AE"/>
<path d="M-19.8633 777.387C-19.9165 790.807 -10.169 801.726 1.90832 801.774C13.9857 801.821 23.8194 790.981 23.8726 777.56C23.9259 764.14 14.1783 753.222 2.10101 753.174C-9.97633 753.126 -19.8101 763.967 -19.8633 777.387Z" fill="#F779AE"/>
<path d="M32.7503 193.145C32.6971 206.565 42.4446 217.483 54.5219 217.531C66.5993 217.579 76.433 206.739 76.4862 193.318C76.5394 179.898 66.792 168.98 54.7146 168.932C42.6373 168.884 32.8035 179.724 32.7503 193.145Z" fill="#F779AE"/>
<path d="M284.566 661.455C284.513 674.875 294.26 685.793 306.337 685.841C318.415 685.889 328.248 675.048 328.302 661.628C328.355 648.208 318.607 637.289 306.53 637.242C294.453 637.194 284.619 648.034 284.566 661.455Z" fill="#F779AE"/>
<path d="M85.2334 193.353C85.1802 206.773 94.4382 217.69 105.912 217.735C117.385 217.781 126.729 206.938 126.783 193.518C126.836 180.097 117.578 169.181 106.104 169.136C94.6308 169.09 85.2867 179.933 85.2334 193.353Z" fill="#F779AE"/>
<path d="M234.035 720.447C233.98 734.212 243.237 745.407 254.711 745.452C266.184 745.498 275.529 734.376 275.584 720.612C275.638 706.847 266.382 695.652 254.908 695.607C243.435 695.561 234.089 706.683 234.035 720.447Z" fill="#F779AE"/>
<path d="M-17.546 192.945C-17.5992 206.366 -7.85176 217.284 4.22558 217.332C16.3029 217.38 26.1367 206.539 26.1899 193.119C26.2431 179.698 16.4956 168.78 4.41827 168.732C-7.65907 168.684 -17.4928 179.525 -17.546 192.945Z" fill="#F779AE"/>
<path d="M285.952 311.911C285.897 325.676 295.643 336.873 307.721 336.921C319.798 336.969 329.633 325.849 329.688 312.085C329.742 298.32 319.996 287.123 307.918 287.075C295.841 287.027 286.006 298.147 285.952 311.911Z" fill="#F779AE"/>
<path d="M238.077 252.529C238.024 265.949 247.282 276.865 258.755 276.911C270.229 276.956 279.573 266.114 279.626 252.693C279.679 239.273 270.421 228.357 258.948 228.311C247.474 228.266 238.13 239.108 238.077 252.529Z" fill="#F779AE"/>
<path d="M133.212 777.994C133.159 791.414 142.417 802.331 153.891 802.376C165.364 802.422 174.708 791.579 174.762 778.159C174.815 764.738 165.557 753.822 154.083 753.777C142.61 753.731 133.266 764.574 133.212 777.994Z" fill="#F779AE"/>
<path d="M135.53 193.552C135.476 206.973 144.734 217.889 156.208 217.935C167.681 217.98 177.026 207.138 177.079 193.717C177.132 180.297 167.874 169.38 156.401 169.335C144.927 169.289 135.583 180.132 135.53 193.552Z" fill="#F779AE"/>
<path d="M338.205 370.065C338.152 383.485 347.41 394.402 358.883 394.447C370.357 394.493 379.701 383.65 379.754 370.23C379.807 356.809 370.549 345.893 359.076 345.848C347.602 345.802 338.258 356.645 338.205 370.065Z" fill="#F779AE"/>
<path d="M337.281 603.094C337.228 616.514 346.486 627.431 357.959 627.476C369.433 627.522 378.777 616.679 378.83 603.259C378.883 589.838 369.625 578.922 358.152 578.877C346.679 578.831 337.334 589.674 337.281 603.094Z" fill="#F779AE"/>
<path d="M183.511 777.57C183.459 790.647 192.718 801.284 204.192 801.329C215.665 801.375 225.009 790.811 225.06 777.735C225.112 764.659 215.853 754.021 204.38 753.976C192.906 753.93 183.563 764.494 183.511 777.57Z" fill="#F779AE"/>
<path d="M185.826 193.752C185.775 206.484 195.036 216.842 206.509 216.888C217.983 216.933 227.325 206.649 227.375 193.917C227.426 181.184 218.165 170.826 206.692 170.78C195.218 170.735 185.876 181.02 185.826 193.752Z" fill="#F779AE"/>
<path d="M286.518 720.655C286.466 733.731 295.236 744.367 306.105 744.41C316.975 744.453 325.828 733.888 325.88 720.811C325.932 707.735 317.163 697.1 306.293 697.056C295.423 697.013 286.57 707.579 286.518 720.655Z" fill="#F779AE"/>
<path d="M288.373 252.728C288.323 265.46 297.093 275.817 307.963 275.86C318.833 275.903 327.685 265.616 327.735 252.884C327.786 240.152 319.015 229.796 308.146 229.752C297.276 229.709 288.424 239.996 288.373 252.728Z" fill="#F779AE"/>
<path d="M337.049 661.663C336.998 674.395 346.259 684.753 357.732 684.799C369.206 684.844 378.548 674.56 378.598 661.827C378.648 649.095 369.388 638.737 357.915 638.691C346.441 638.646 337.099 648.931 337.049 661.663Z" fill="#F779AE"/>
<path d="M388.042 486.156C387.991 498.888 396.762 509.244 407.632 509.288C418.501 509.331 427.354 499.044 427.404 486.312C427.455 473.58 418.684 463.223 407.814 463.18C396.945 463.137 388.092 473.424 388.042 486.156Z" fill="#F779AE"/>
<path d="M338.435 312.119C338.383 325.196 347.642 335.833 359.115 335.878C370.589 335.924 379.932 325.36 379.984 312.284C380.036 299.208 370.777 288.57 359.303 288.525C347.83 288.479 338.487 299.043 338.435 312.119Z" fill="#F779AE"/>
<path d="M388.269 428.833C388.219 441.565 396.989 451.922 407.859 451.965C418.729 452.008 427.581 441.721 427.631 428.989C427.682 416.257 418.911 405.901 408.042 405.858C397.172 405.814 388.32 416.101 388.269 428.833Z" fill="#F779AE"/>
<path d="M387.805 545.971C387.754 558.703 396.525 569.059 407.394 569.102C418.264 569.146 427.117 558.859 427.167 546.127C427.218 533.395 418.447 523.038 407.577 522.995C396.708 522.952 387.855 533.239 387.805 545.971Z" fill="#F779AE"/>
<path d="M235.992 778.402C235.941 791.134 244.712 801.49 255.582 801.533C266.451 801.576 275.304 791.29 275.354 778.558C275.405 765.825 266.634 755.469 255.764 755.426C244.895 755.383 236.042 765.669 235.992 778.402Z" fill="#F779AE"/>
<path d="M32.3876 836.164C32.3371 848.896 41.1077 859.252 51.9773 859.296C62.847 859.339 71.6994 849.052 71.7499 836.32C71.8004 823.588 63.0298 813.231 52.1601 813.188C41.2905 813.145 32.4381 823.432 32.3876 836.164Z" fill="#F779AE"/>
<path d="M238.309 193.96C238.259 206.692 247.029 217.048 257.899 217.092C268.768 217.135 277.621 206.848 277.671 194.116C277.722 181.384 268.951 171.027 258.082 170.984C247.212 170.941 238.36 181.228 238.309 193.96Z" fill="#F779AE"/>
<path d="M82.684 836.363C82.6335 849.096 91.4041 859.452 102.274 859.495C113.143 859.538 121.996 849.252 122.046 836.519C122.097 823.787 113.326 813.431 102.457 813.388C91.5869 813.345 82.7344 823.631 82.684 836.363Z" fill="#F779AE"/>
<path d="M35.1668 135.208C35.1177 147.596 43.8894 157.673 54.759 157.716C65.6286 157.759 74.48 147.752 74.5291 135.364C74.5782 122.976 65.8065 112.898 54.9369 112.855C44.0673 112.812 35.2159 122.82 35.1668 135.208Z" fill="#F779AE"/>
<path d="M-17.9087 835.964C-17.9592 848.697 -9.18852 859.053 1.68107 859.096C12.5507 859.139 21.4032 848.853 21.4536 836.121C21.5041 823.388 12.7335 813.032 1.86388 812.989C-9.00571 812.946 -17.8582 823.232 -17.9087 835.964Z" fill="#F779AE"/>
<path d="M387.577 603.293C387.527 616.026 396.298 626.382 407.167 626.425C418.037 626.468 426.889 616.182 426.94 603.449C426.99 590.717 418.22 580.361 407.35 580.318C396.48 580.275 387.628 590.561 387.577 603.293Z" fill="#F779AE"/>
<path d="M87.65 135.416C87.6008 147.804 95.883 157.879 106.149 157.92C116.415 157.961 124.776 147.951 124.825 135.563C124.875 123.175 116.592 113.1 106.327 113.059C96.0609 113.018 87.6991 123.028 87.65 135.416Z" fill="#F779AE"/>
<path d="M-15.1294 135.008C-15.1785 147.396 -6.4068 157.474 4.46281 157.517C15.3324 157.56 24.1838 147.552 24.2329 135.164C24.282 122.776 15.5103 112.699 4.64068 112.656C-6.22893 112.613 -15.0803 122.62 -15.1294 135.008Z" fill="#F779AE"/>
<path d="M388.504 369.641C388.455 382.029 397.226 392.107 408.096 392.15C418.966 392.193 427.817 382.185 427.866 369.797C427.915 357.409 419.144 347.332 408.274 347.289C397.404 347.246 388.553 357.253 388.504 369.641Z" fill="#F779AE"/>
<path d="M135.167 836.571C135.119 848.615 143.403 858.412 153.668 858.453C163.934 858.493 172.295 848.763 172.343 836.719C172.39 824.675 164.107 814.878 153.841 814.838C143.575 814.797 135.215 824.527 135.167 836.571Z" fill="#F779AE"/>
<path d="M137.946 135.615C137.897 148.003 146.179 158.079 156.445 158.12C166.711 158.16 175.073 148.151 175.122 135.763C175.171 123.375 166.889 113.299 156.623 113.258C146.357 113.218 137.995 123.227 137.946 135.615Z" fill="#F779AE"/>
<path d="M339.003 720.24C338.956 732.284 347.239 742.081 357.505 742.121C367.77 742.162 376.131 732.432 376.179 720.388C376.227 708.344 367.943 698.547 357.678 698.506C347.412 698.466 339.051 708.196 339.003 720.24Z" fill="#F779AE"/>
<path d="M286.288 778.601C286.24 790.645 295.013 800.443 305.883 800.486C316.752 800.53 325.603 790.801 325.65 778.757C325.698 766.713 316.925 756.914 306.056 756.871C295.186 756.828 286.336 766.557 286.288 778.601Z" fill="#F779AE"/>
<path d="M340.856 252.936C340.809 264.98 349.092 274.777 359.358 274.817C369.623 274.858 377.984 265.127 378.032 253.084C378.08 241.04 369.796 231.243 359.53 231.202C349.265 231.162 340.904 240.892 340.856 252.936Z" fill="#F779AE"/>
<path d="M389.532 661.871C389.484 673.915 397.768 683.711 408.033 683.752C418.299 683.793 426.66 674.062 426.708 662.018C426.755 649.974 418.472 640.178 408.206 640.137C397.941 640.096 389.58 649.827 389.532 661.871Z" fill="#F779AE"/>
<path d="M390.918 312.327C390.872 324.027 399.156 333.545 409.422 333.586C419.687 333.626 428.047 324.175 428.093 312.475C428.14 300.775 419.855 291.257 409.59 291.217C399.324 291.176 390.964 300.628 390.918 312.327Z" fill="#F779AE"/>
<path d="M185.463 836.771C185.416 848.815 193.699 858.611 203.965 858.652C214.23 858.693 222.591 848.962 222.639 836.918C222.687 824.874 214.403 815.078 204.138 815.037C193.872 814.996 185.511 824.727 185.463 836.771Z" fill="#F779AE"/>
<path d="M288.605 194.159C288.558 206.203 297.331 216.002 308.2 216.045C319.07 216.088 327.92 206.359 327.968 194.315C328.015 182.271 319.243 172.473 308.373 172.43C297.503 172.387 288.653 182.115 288.605 194.159Z" fill="#F779AE"/>
<path d="M188.24 136.438C188.192 148.482 196.476 158.278 206.741 158.319C217.007 158.36 225.368 148.629 225.416 136.585C225.463 124.541 217.18 114.745 206.914 114.704C196.649 114.663 188.288 124.394 188.24 136.438Z" fill="#F779AE"/>
<path d="M440.522 486.987C440.476 498.687 448.761 508.204 459.026 508.245C469.292 508.286 477.652 498.834 477.698 487.134C477.744 475.434 469.46 465.917 459.194 465.876C448.929 465.836 440.569 475.287 440.522 486.987Z" fill="#F779AE"/>
<path d="M440.29 545.556C440.244 557.256 448.528 566.773 458.794 566.814C469.06 566.855 477.419 557.403 477.466 545.703C477.512 534.003 469.228 524.486 458.962 524.445C448.696 524.404 440.337 533.856 440.29 545.556Z" fill="#F779AE"/>
<path d="M440.752 429.041C440.705 441.085 448.988 450.882 459.254 450.923C469.519 450.963 477.88 441.233 477.928 429.189C477.976 417.145 469.692 407.348 459.426 407.307C449.161 407.267 440.8 416.997 440.752 429.041Z" fill="#F779AE"/>
<path d="M235.76 836.97C235.715 848.326 244 857.565 254.266 857.605C264.532 857.646 272.89 848.473 272.935 837.118C272.98 825.762 264.695 816.523 254.429 816.483C244.163 816.442 235.805 825.614 235.76 836.97Z" fill="#F779AE"/>
<path d="M440.061 603.502C440.016 614.857 448.301 624.096 458.567 624.137C468.833 624.177 477.191 615.005 477.236 603.649C477.281 592.293 468.996 583.055 458.73 583.014C448.464 582.973 440.106 592.146 440.061 603.502Z" fill="#F779AE"/>
<path d="M240.723 136.646C240.678 148.002 248.474 157.238 258.136 157.277C267.798 157.315 275.667 148.14 275.712 136.785C275.757 125.429 267.961 116.192 258.299 116.154C248.637 116.116 240.768 125.29 240.723 136.646Z" fill="#F779AE"/>
<path d="M440.984 370.472C440.939 381.828 449.225 391.067 459.491 391.108C469.756 391.148 478.115 381.976 478.16 370.62C478.205 359.264 469.919 350.026 459.654 349.985C449.388 349.944 441.029 359.117 440.984 370.472Z" fill="#F779AE"/>
<path d="M338.771 778.809C338.726 790.165 347.012 799.403 357.277 799.444C367.543 799.485 375.902 790.312 375.947 778.956C375.992 767.601 367.706 758.362 357.441 758.321C347.175 758.281 338.816 767.453 338.771 778.809Z" fill="#F779AE"/>
<path d="M389.3 720.44C389.255 731.795 397.051 741.032 406.713 741.07C416.374 741.109 424.243 731.934 424.288 720.578C424.333 709.223 416.538 699.986 406.876 699.948C397.214 699.909 389.345 709.084 389.3 720.44Z" fill="#F779AE"/>
<path d="M34.3472 893.495C34.3021 904.851 42.0981 914.088 51.76 914.126C61.4219 914.164 69.2909 904.99 69.3359 893.634C69.3809 882.278 61.5849 873.041 51.9231 873.003C42.2612 872.965 34.3922 882.139 34.3472 893.495Z" fill="#F779AE"/>
<path d="M37.5858 76.6477C37.5422 87.6593 45.3393 96.617 55.0012 96.6553C64.663 96.6936 72.5309 87.798 72.5746 76.7864C72.6182 65.7748 64.8211 56.817 55.1593 56.7787C45.4974 56.7404 37.6295 65.636 37.5858 76.6477Z" fill="#F779AE"/>
<path d="M391.153 253.136C391.108 264.491 398.904 273.728 408.565 273.766C418.227 273.805 426.096 264.63 426.141 253.274C426.186 241.919 418.39 232.682 408.728 232.644C399.067 232.605 391.198 241.78 391.153 253.136Z" fill="#F779AE"/>
<path d="M-15.9516 893.919C-15.9953 904.93 -8.19818 913.888 1.46368 913.926C11.1255 913.965 18.9934 905.069 19.0371 894.058C19.0808 883.046 11.2836 874.088 1.62179 874.05C-8.04007 874.012 -15.908 882.907 -15.9516 893.919Z" fill="#F779AE"/>
<path d="M84.641 894.318C84.5973 905.329 92.8839 914.289 103.15 914.33C113.415 914.37 121.773 905.477 121.817 894.465C121.86 883.453 113.574 874.494 103.308 874.453C93.042 874.412 84.6846 883.306 84.641 894.318Z" fill="#F779AE"/>
<path d="M341.088 194.367C341.043 205.723 348.839 214.96 358.501 214.998C368.163 215.036 376.032 205.862 376.077 194.506C376.122 183.15 368.326 173.914 358.664 173.875C349.003 173.837 341.134 183.012 341.088 194.367Z" fill="#F779AE"/>
<path d="M-12.7104 76.4483C-12.7541 87.4599 -4.95701 96.4176 4.70486 96.4559C14.3667 96.4942 22.2346 87.5986 22.2783 76.587C22.322 65.5754 14.5248 56.6176 4.86297 56.5793C-4.7989 56.541 -12.6668 65.4366 -12.7104 76.4483Z" fill="#F779AE"/>
<path d="M87.8822 76.8471C87.8386 87.8587 95.6356 96.8165 105.298 96.8548C114.959 96.8931 122.827 87.9975 122.871 76.9859C122.915 65.9742 115.117 57.0165 105.456 56.9782C95.7937 56.9399 87.9259 65.8355 87.8822 76.8471Z" fill="#F779AE"/>
<path d="M134.937 894.517C134.894 905.529 142.691 914.486 152.353 914.525C162.014 914.563 169.882 905.667 169.926 894.656C169.97 883.644 162.172 874.686 152.511 874.648C142.849 874.61 134.981 883.505 134.937 894.517Z" fill="#F779AE"/>
<path d="M442.013 662.702C441.969 673.714 449.766 682.671 459.428 682.71C469.09 682.748 476.958 673.852 477.001 662.841C477.045 651.829 469.248 642.871 459.586 642.833C449.924 642.795 442.056 651.69 442.013 662.702Z" fill="#F779AE"/>
<path d="M443.401 312.536C443.357 323.547 451.154 332.505 460.816 332.543C470.478 332.582 478.346 323.686 478.39 312.674C478.433 301.663 470.636 292.705 460.974 292.667C451.313 292.628 443.445 301.524 443.401 312.536Z" fill="#F779AE"/>
<path d="M288.243 837.178C288.198 848.534 295.994 857.771 305.656 857.809C315.317 857.847 323.186 848.673 323.231 837.317C323.276 825.961 315.48 816.725 305.819 816.686C296.157 816.648 288.288 825.823 288.243 837.178Z" fill="#F779AE"/>
<path d="M138.178 77.0465C138.135 88.0581 145.932 97.0159 155.594 97.0542C165.256 97.0925 173.124 88.1969 173.167 77.1852C173.211 66.1736 165.414 57.2159 155.752 57.1776C146.09 57.1393 138.222 66.0349 138.178 77.0465Z" fill="#F779AE"/>
<path d="M291.022 136.222C290.978 147.234 298.775 156.192 308.437 156.23C318.099 156.268 325.967 147.373 326.011 136.361C326.054 125.349 318.257 116.392 308.595 116.353C298.933 116.315 291.066 125.211 291.022 136.222Z" fill="#F779AE"/>
<path d="M493.006 487.195C492.962 498.207 500.269 507.163 509.327 507.198C518.385 507.234 525.764 498.337 525.808 487.325C525.851 476.314 518.544 467.358 509.486 467.322C500.428 467.286 493.049 476.184 493.006 487.195Z" fill="#F779AE"/>
<path d="M187.42 894.725C187.377 905.737 195.174 914.695 204.836 914.733C214.498 914.771 222.365 905.876 222.409 894.864C222.453 883.852 214.656 874.895 204.994 874.856C195.332 874.818 187.464 883.714 187.42 894.725Z" fill="#F779AE"/>
<path d="M493.235 429.249C493.193 439.917 500.502 448.594 509.56 448.63C518.618 448.666 525.995 440.047 526.037 429.379C526.08 418.712 518.771 410.035 509.713 409.999C500.655 409.963 493.278 418.582 493.235 429.249Z" fill="#F779AE"/>
<path d="M492.773 545.764C492.73 556.776 500.037 565.731 509.095 565.767C518.153 565.803 525.532 556.906 525.575 545.894C525.619 534.882 518.311 525.927 509.253 525.891C500.195 525.855 492.817 534.752 492.773 545.764Z" fill="#F779AE"/>
<path d="M190.662 77.2546C190.618 88.2662 197.925 97.222 206.983 97.2579C216.041 97.2938 223.42 88.3963 223.463 77.3847C223.507 66.373 216.2 57.4172 207.142 57.3813C198.084 57.3454 190.705 66.243 190.662 77.2546Z" fill="#F779AE"/>
<path d="M391.254 779.017C391.212 789.685 398.521 798.361 407.579 798.397C416.637 798.433 424.014 789.815 424.056 779.147C424.099 768.48 416.79 759.803 407.732 759.767C398.674 759.731 391.297 768.35 391.254 779.017Z" fill="#F779AE"/>
<path d="M493.468 370.681C493.425 381.348 500.734 390.025 509.792 390.061C518.85 390.097 526.227 381.478 526.269 370.811C526.312 360.143 519.003 351.466 509.945 351.43C500.887 351.395 493.51 360.013 493.468 370.681Z" fill="#F779AE"/>
<path d="M492.544 603.71C492.501 614.377 499.81 623.054 508.868 623.09C517.926 623.126 525.303 614.507 525.346 603.84C525.388 593.172 518.079 584.495 509.021 584.459C499.963 584.423 492.586 593.042 492.544 603.71Z" fill="#F779AE"/>
<path d="M393.572 194.576C393.529 205.243 400.838 213.92 409.896 213.956C418.954 213.992 426.331 205.373 426.374 194.706C426.416 184.038 419.107 175.361 410.049 175.325C400.991 175.289 393.614 183.908 393.572 194.576Z" fill="#F779AE"/>
<path d="M237.717 894.925C237.676 905.248 244.986 913.646 254.044 913.682C263.102 913.718 270.478 905.378 270.519 895.055C270.56 884.731 263.25 876.333 254.192 876.297C245.134 876.262 237.758 884.601 237.717 894.925Z" fill="#F779AE"/>
<path d="M340.726 837.386C340.684 848.054 347.992 856.731 357.05 856.767C366.108 856.803 373.485 848.184 373.528 837.516C373.57 826.849 366.261 818.172 357.203 818.136C348.145 818.1 340.768 826.719 340.726 837.386Z" fill="#F779AE"/>
<path d="M443.633 253.967C443.592 264.29 450.902 272.688 459.96 272.724C469.018 272.76 476.394 264.42 476.435 254.097C476.476 243.773 469.166 235.375 460.108 235.34C451.05 235.304 443.674 243.643 443.633 253.967Z" fill="#F779AE"/>
<path d="M441.78 721.271C441.739 731.594 449.049 739.992 458.107 740.028C467.165 740.064 474.541 731.724 474.582 721.401C474.623 711.077 467.313 702.68 458.255 702.644C449.197 702.608 441.821 710.947 441.78 721.271Z" fill="#F779AE"/>
<path d="M343.505 136.43C343.464 146.754 350.774 155.152 359.832 155.188C368.89 155.223 376.266 146.884 376.307 136.56C376.348 126.237 369.038 117.839 359.98 117.803C350.922 117.767 343.546 126.107 343.505 136.43Z" fill="#F779AE"/>
<path d="M243.145 77.4627C243.104 87.7861 249.924 96.1821 258.378 96.2156C266.832 96.2491 273.719 87.9075 273.76 77.5841C273.801 67.2607 266.98 58.8648 258.526 58.8313C250.072 58.7978 243.186 67.1393 243.145 77.4627Z" fill="#F779AE"/>
<path d="M36.2967 953.319C36.2572 963.298 43.0785 971.415 51.5327 971.449C59.9868 971.482 66.8723 963.419 66.9119 953.44C66.9514 943.461 60.1301 935.344 51.676 935.31C43.2218 935.277 36.3363 943.339 36.2967 953.319Z" fill="#F779AE"/>
<path d="M493.697 312.735C493.656 323.058 500.966 331.456 510.024 331.492C519.082 331.528 526.458 323.188 526.499 312.865C526.54 302.542 519.23 294.144 510.172 294.108C501.114 294.072 493.738 302.411 493.697 312.735Z" fill="#F779AE"/>
<path d="M492.311 662.278C492.272 672.258 499.583 680.377 508.641 680.412C517.699 680.448 525.074 672.388 525.113 662.408C525.153 652.429 517.842 644.31 508.784 644.274C499.726 644.238 492.351 652.299 492.311 662.278Z" fill="#F779AE"/>
<path d="M-13.9995 953.119C-14.0391 963.099 -7.21774 971.216 1.2364 971.249C9.69055 971.283 16.576 963.22 16.6156 953.241C16.6552 943.261 9.83383 935.144 1.37969 935.111C-7.07446 935.077 -13.96 943.14 -13.9995 953.119Z" fill="#F779AE"/>
<path d="M86.5932 953.518C86.5536 963.497 93.8645 971.616 102.922 971.652C111.98 971.688 119.356 963.627 119.395 953.648C119.435 943.669 112.124 935.55 103.066 935.514C94.0077 935.478 86.6327 943.539 86.5932 953.518Z" fill="#F779AE"/>
<path d="M290.202 894.51C290.163 904.489 296.984 912.606 305.438 912.639C313.892 912.673 320.778 904.61 320.817 894.631C320.857 884.652 314.036 876.535 305.581 876.501C297.127 876.468 290.242 884.53 290.202 894.51Z" fill="#F779AE"/>
<path d="M40.0024 18.7107C39.9628 28.69 46.7842 36.807 55.2383 36.8405C63.6925 36.874 70.5779 28.8114 70.6175 18.8321C70.6571 8.85281 63.8357 0.735828 55.3816 0.702308C46.9275 0.668788 40.0419 8.73142 40.0024 18.7107Z" fill="#F779AE"/>
<path d="M-10.2939 18.5112C-10.3335 28.4905 -3.51213 36.6075 4.942 36.641C13.3961 36.6745 20.2817 28.6119 20.3212 18.6326C20.3608 8.65335 13.5394 0.536364 5.08529 0.502845C-3.36885 0.469325 -10.2543 8.53197 -10.2939 18.5112Z" fill="#F779AE"/>
<path d="M90.2988 18.9101C90.2592 28.8894 97.0805 37.0064 105.535 37.0399C113.989 37.0734 120.874 29.0108 120.914 19.0315C120.953 9.05222 114.132 0.935229 105.678 0.901709C97.2238 0.86819 90.3383 8.93083 90.2988 18.9101Z" fill="#F779AE"/>
<path d="M293.441 77.6622C293.403 87.2973 300.225 95.1353 308.679 95.1689C317.133 95.2024 324.018 87.4187 324.056 77.7835C324.094 68.1484 317.272 60.3104 308.818 60.2768C300.364 60.2433 293.479 68.027 293.441 77.6622Z" fill="#F779AE"/>
<path d="M136.892 953.094C136.854 962.73 143.676 970.568 152.13 970.601C160.584 970.635 167.469 962.851 167.507 953.216C167.545 943.581 160.723 935.743 152.269 935.709C143.814 935.676 136.93 943.459 136.892 953.094Z" fill="#F779AE"/>
<path d="M140.593 19.7325C140.554 29.3677 147.377 37.2057 155.831 37.2392C164.285 37.2728 171.169 29.4891 171.208 19.8539C171.246 10.2187 164.423 2.38072 155.969 2.34721C147.515 2.31369 140.631 10.0974 140.593 19.7325Z" fill="#F779AE"/>
<path d="M545.489 487.403C545.451 497.038 552.273 504.876 560.727 504.91C569.181 504.943 576.066 497.16 576.104 487.525C576.142 477.889 569.32 470.051 560.865 470.018C552.411 469.984 545.527 477.768 545.489 487.403Z" fill="#F779AE"/>
<path d="M443.74 778.602C443.702 788.237 450.524 796.075 458.978 796.109C467.432 796.142 474.317 788.359 474.355 778.724C474.393 769.088 467.571 761.25 459.117 761.217C450.662 761.183 443.778 768.967 443.74 778.602Z" fill="#F779AE"/>
<path d="M545.256 545.972C545.218 555.607 552.041 563.445 560.495 563.479C568.949 563.512 575.833 555.729 575.872 546.093C575.91 536.458 569.087 528.62 560.633 528.587C552.179 528.553 545.295 536.337 545.256 545.972Z" fill="#F779AE"/>
<path d="M545.716 430.081C545.678 439.716 552.5 447.554 560.954 447.587C569.409 447.621 576.293 439.837 576.331 430.202C576.369 420.567 569.547 412.729 561.093 412.695C552.639 412.662 545.754 420.445 545.716 430.081Z" fill="#F779AE"/>
<path d="M446.052 195.407C446.014 205.042 452.836 212.88 461.291 212.913C469.745 212.947 476.629 205.163 476.667 195.528C476.706 185.893 469.883 178.055 461.429 178.021C452.975 177.988 446.09 185.771 446.052 195.407Z" fill="#F779AE"/>
<path d="M391.022 837.586C390.985 846.877 397.809 854.436 406.263 854.469C414.717 854.503 421.6 846.998 421.637 837.707C421.674 828.416 414.851 820.857 406.396 820.824C397.942 820.79 391.059 828.295 391.022 837.586Z" fill="#F779AE"/>
<path d="M393.801 136.63C393.763 146.265 400.586 154.103 409.04 154.136C417.494 154.17 424.378 146.386 424.416 136.751C424.455 127.116 417.632 119.278 409.178 119.244C400.724 119.211 393.84 126.995 393.801 136.63Z" fill="#F779AE"/>
<path d="M189.375 953.303C189.337 962.938 196.159 970.776 204.613 970.809C213.068 970.843 219.952 963.059 219.99 953.424C220.028 943.789 213.206 935.951 204.752 935.917C196.298 935.884 189.413 943.667 189.375 953.303Z" fill="#F779AE"/>
<path d="M494.264 721.479C494.225 731.114 500.558 738.95 508.409 738.981C516.259 739.012 522.654 731.227 522.692 721.592C522.73 711.956 516.397 704.12 508.547 704.089C500.697 704.058 494.302 711.844 494.264 721.479Z" fill="#F779AE"/>
<path d="M545.027 603.918C544.99 613.209 551.813 620.768 560.268 620.801C568.722 620.835 575.605 613.33 575.642 604.039C575.679 594.748 568.855 587.189 560.401 587.155C551.947 587.122 545.064 594.627 545.027 603.918Z" fill="#F779AE"/>
<path d="M193.078 19.3175C193.041 28.6086 199.375 36.1657 207.226 36.1968C215.076 36.228 221.47 28.7213 221.506 19.4302C221.543 10.1392 215.209 2.58207 207.359 2.55094C199.509 2.51982 193.115 10.0265 193.078 19.3175Z" fill="#F779AE"/>
<path d="M496.119 253.552C496.082 262.843 502.416 270.4 510.266 270.431C518.117 270.462 524.51 262.956 524.547 253.664C524.584 244.373 518.25 236.816 510.4 236.785C502.549 236.754 496.156 244.261 496.119 253.552Z" fill="#F779AE"/>
<path d="M545.951 370.889C545.914 380.18 552.737 387.739 561.192 387.772C569.646 387.806 576.529 380.301 576.566 371.01C576.603 361.719 569.779 354.16 561.325 354.126C552.871 354.093 545.988 361.598 545.951 370.889Z" fill="#F779AE"/>
<path d="M342.685 894.718C342.648 904.009 348.983 911.566 356.833 911.597C364.683 911.628 371.077 904.121 371.114 894.83C371.15 885.539 364.816 877.982 356.966 877.951C349.116 877.92 342.722 885.427 342.685 894.718Z" fill="#F779AE"/>
<path d="M239.671 953.502C239.636 962.449 245.971 969.727 253.821 969.758C261.671 969.789 268.064 962.562 268.1 953.615C268.135 944.668 261.8 937.39 253.95 937.358C246.099 937.327 239.707 944.555 239.671 953.502Z" fill="#F779AE"/>
<path d="M345.924 77.8703C345.889 86.8172 352.224 94.0954 360.074 94.1265C367.924 94.1577 374.317 86.93 374.352 77.983C374.388 69.0361 368.053 61.7579 360.202 61.7268C352.352 61.6957 345.959 68.9234 345.924 77.8703Z" fill="#F779AE"/>
<path d="M245.559 20.1487C245.523 29.0957 251.858 36.3739 259.709 36.405C267.559 36.4361 273.952 29.2084 273.987 20.2615C274.023 11.3145 267.687 4.03635 259.837 4.00523C251.987 3.9741 245.594 11.2018 245.559 20.1487Z" fill="#F779AE"/>
<path d="M544.792 663.109C544.757 672.056 551.092 679.335 558.942 679.366C566.792 679.397 573.185 672.169 573.22 663.222C573.256 654.275 566.921 646.997 559.07 646.966C551.22 646.935 544.828 654.163 544.792 663.109Z" fill="#F779AE"/>
<path d="M548.367 312.952C548.332 321.899 554.177 329.175 561.424 329.204C568.67 329.232 574.573 322.003 574.609 313.056C574.644 304.109 568.799 296.833 561.552 296.804C554.306 296.775 548.403 304.005 548.367 312.952Z" fill="#F779AE"/>
<path d="M443.505 837.794C443.471 846.397 449.807 853.396 457.658 853.427C465.508 853.458 471.899 846.509 471.934 837.907C471.968 829.304 465.631 822.305 457.781 822.273C449.931 822.242 443.539 829.191 443.505 837.794Z" fill="#F779AE"/>
<path d="M494.034 779.425C494 788.027 500.336 795.027 508.186 795.058C516.036 795.089 522.428 788.14 522.462 779.537C522.496 770.935 516.16 763.935 508.31 763.904C500.459 763.873 494.068 770.822 494.034 779.425Z" fill="#F779AE"/>
<path d="M496.351 194.983C496.317 203.586 502.653 210.585 510.503 210.616C518.354 210.647 524.745 203.699 524.779 195.096C524.813 186.493 518.477 179.494 510.627 179.463C502.777 179.431 496.385 186.38 496.351 194.983Z" fill="#F779AE"/>
<path d="M446.282 137.461C446.248 146.064 452.584 153.063 460.434 153.094C468.285 153.125 474.676 146.176 474.71 137.574C474.744 128.971 468.408 121.972 460.558 121.94C452.708 121.909 446.316 128.858 446.282 137.461Z" fill="#F779AE"/>
<path d="M292.152 954.333C292.118 962.936 297.964 969.933 305.211 969.962C312.457 969.991 318.359 963.04 318.393 954.437C318.428 945.834 312.581 938.837 305.334 938.808C298.088 938.78 292.186 945.73 292.152 954.333Z" fill="#F779AE"/>
<path d="M38.2563 1010.65C38.2222 1019.25 44.0689 1026.25 51.3153 1026.28C58.5617 1026.31 64.4637 1019.36 64.4978 1010.75C64.5319 1002.15 58.6852 995.154 51.4388 995.125C44.1924 995.097 38.2904 1002.05 38.2563 1010.65Z" fill="#F779AE"/>
<path d="M88.5526 1010.85C88.5185 1019.45 94.8547 1026.45 102.705 1026.48C110.555 1026.51 116.947 1019.57 116.981 1010.96C117.015 1002.36 110.679 995.36 102.829 995.329C94.9782 995.298 88.5867 1002.25 88.5526 1010.85Z" fill="#F779AE"/>
<path d="M-12.0399 1010.45C-12.074 1019.05 -6.22736 1026.05 1.01905 1026.08C8.26545 1026.11 14.1675 1019.16 14.2016 1010.55C14.2357 1001.95 8.38897 994.955 1.14257 994.926C-6.10384 994.897 -12.0058 1001.85 -12.0399 1010.45Z" fill="#F779AE"/>
<path d="M295.858 19.7251C295.823 28.328 301.67 35.3252 308.917 35.354C316.163 35.3827 322.065 28.432 322.099 19.8292C322.133 11.2263 316.286 4.22909 309.04 4.20036C301.794 4.17163 295.892 11.1223 295.858 19.7251Z" fill="#F779AE"/>
<path d="M392.979 895.54C392.946 903.799 398.794 910.517 406.041 910.546C413.287 910.575 419.188 903.903 419.221 895.644C419.254 887.386 413.406 880.667 406.159 880.638C398.913 880.61 393.012 887.281 392.979 895.54Z" fill="#F779AE"/>
<path d="M597.972 487.611C597.939 495.87 603.787 502.588 611.033 502.617C618.28 502.646 624.181 495.974 624.213 487.715C624.246 479.457 618.398 472.738 611.152 472.71C603.905 472.681 598.005 479.352 597.972 487.611Z" fill="#F779AE"/>
<path d="M396.22 78.0697C396.188 86.3284 402.035 93.0467 409.282 93.0754C416.528 93.1041 422.429 86.4324 422.462 78.1737C422.495 69.915 416.647 63.1967 409.4 63.1679C402.154 63.1392 396.253 69.8109 396.22 78.0697Z" fill="#F779AE"/>
<path d="M598.202 429.666C598.167 438.268 604.014 445.266 611.261 445.294C618.507 445.323 624.409 438.372 624.443 429.77C624.477 421.167 618.63 414.17 611.384 414.141C604.138 414.112 598.236 421.063 598.202 429.666Z" fill="#F779AE"/>
<path d="M597.74 546.18C597.707 554.439 603.555 561.157 610.801 561.186C618.047 561.214 623.948 554.543 623.981 546.284C624.014 538.025 618.166 531.307 610.92 531.278C603.673 531.25 597.772 537.921 597.74 546.18Z" fill="#F779AE"/>
<path d="M548.599 254.383C548.567 262.642 554.415 269.36 561.661 269.389C568.907 269.417 574.808 262.746 574.841 254.487C574.874 246.228 569.026 239.51 561.78 239.481C554.533 239.452 548.632 246.124 548.599 254.383Z" fill="#F779AE"/>
<path d="M546.747 721.687C546.714 729.946 552.562 736.664 559.808 736.693C567.055 736.721 572.955 730.05 572.988 721.791C573.021 713.532 567.173 706.814 559.927 706.785C552.68 706.756 546.779 713.428 546.747 721.687Z" fill="#F779AE"/>
<path d="M138.851 1010.43C138.819 1018.68 144.666 1025.4 151.913 1025.43C159.159 1025.46 165.06 1018.79 165.093 1010.53C165.126 1002.27 159.278 995.553 152.031 995.524C144.785 995.495 138.884 1002.17 138.851 1010.43Z" fill="#F779AE"/>
<path d="M597.51 604.126C597.478 612.04 603.327 618.48 610.574 618.508C617.82 618.537 623.72 612.144 623.751 604.23C623.783 596.315 617.934 589.876 610.687 589.847C603.441 589.818 597.541 596.211 597.51 604.126Z" fill="#F779AE"/>
<path d="M598.434 371.097C598.402 379.011 604.251 385.451 611.498 385.48C618.744 385.508 624.644 379.115 624.675 371.201C624.707 363.286 618.858 356.847 611.611 356.818C604.365 356.789 598.465 363.182 598.434 371.097Z" fill="#F779AE"/>
<path d="M191.332 1011.26C191.301 1019.17 196.66 1025.61 203.303 1025.64C209.945 1025.66 215.355 1019.27 215.387 1011.35C215.418 1003.44 210.059 997 203.416 996.974C196.774 996.948 191.363 1003.34 191.332 1011.26Z" fill="#F779AE"/>
<path d="M344.635 954.541C344.604 962.456 349.963 968.893 356.606 968.92C363.248 968.946 368.658 962.551 368.69 954.637C368.721 946.722 363.362 940.285 356.719 940.258C350.077 940.232 344.666 946.627 344.635 954.541Z" fill="#F779AE"/>
<path d="M348.341 19.9332C348.309 27.8478 353.669 34.2852 360.311 34.3115C366.954 34.3378 372.364 27.9431 372.395 20.0285C372.427 12.1139 367.067 5.67653 360.425 5.65019C353.782 5.62385 348.372 12.0186 348.341 19.9332Z" fill="#F779AE"/>
<path d="M598.663 313.151C598.633 320.722 603.994 326.88 610.636 326.906C617.279 326.933 622.688 320.817 622.718 313.246C622.748 305.676 617.388 299.518 610.745 299.491C604.103 299.465 598.693 305.581 598.663 313.151Z" fill="#F779AE"/>
<path d="M597.275 663.318C597.245 670.888 602.606 677.047 609.248 677.073C615.891 677.099 621.3 670.983 621.33 663.413C621.36 655.842 615.999 649.684 609.357 649.658C602.714 649.631 597.305 655.747 597.275 663.318Z" fill="#F779AE"/>
<path d="M495.988 838.002C495.957 845.917 501.316 852.354 507.959 852.38C514.601 852.407 520.012 846.012 520.043 838.097C520.074 830.183 514.715 823.745 508.073 823.719C501.43 823.693 496.02 830.087 495.988 838.002Z" fill="#F779AE"/>
<path d="M445.462 895.748C445.432 903.319 450.793 909.477 457.435 909.504C464.078 909.53 469.487 903.414 469.517 895.844C469.547 888.273 464.187 882.115 457.544 882.088C450.901 882.062 445.492 888.178 445.462 895.748Z" fill="#F779AE"/>
<path d="M498.768 137.046C498.738 144.616 504.098 150.775 510.741 150.801C517.383 150.828 522.792 144.712 522.822 137.141C522.852 129.571 517.492 123.412 510.849 123.386C504.207 123.36 498.798 129.475 498.768 137.046Z" fill="#F779AE"/>
<path d="M241.628 1011.46C241.6 1018.68 246.961 1024.56 253.604 1024.59C260.246 1024.61 265.654 1018.78 265.683 1011.55C265.712 1004.33 260.35 998.446 253.708 998.42C247.065 998.393 241.657 1004.23 241.628 1011.46Z" fill="#F779AE"/>
<path d="M548.706 779.018C548.676 786.589 553.547 792.745 559.586 792.769C565.624 792.793 570.544 786.675 570.574 779.105C570.604 771.535 565.733 765.378 559.694 765.354C553.656 765.33 548.736 771.448 548.706 779.018Z" fill="#F779AE"/>
<path d="M551.021 195.2C550.992 202.426 555.864 208.304 561.903 208.328C567.942 208.352 572.86 202.513 572.889 195.286C572.917 188.06 568.045 182.182 562.007 182.159C555.968 182.135 551.05 187.973 551.021 195.2Z" fill="#F779AE"/>
<path d="M448.703 78.2778C448.673 85.8483 454.034 92.0067 460.677 92.0331C467.319 92.0594 472.728 85.9437 472.758 78.3732C472.788 70.8027 467.428 64.6442 460.785 64.6179C454.143 64.5916 448.733 70.7073 448.703 78.2778Z" fill="#F779AE"/>
<path d="M599.23 721.895C599.202 728.777 604.076 734.376 610.114 734.4C616.153 734.424 621.07 728.864 621.098 721.982C621.125 715.099 616.252 709.501 610.213 709.477C604.174 709.453 599.257 715.013 599.23 721.895Z" fill="#F779AE"/>
<path d="M394.934 954.118C394.906 961 399.78 966.598 405.818 966.622C411.857 966.646 416.774 961.087 416.802 954.204C416.829 947.322 411.956 941.723 405.917 941.7C399.878 941.676 394.961 947.235 394.934 954.118Z" fill="#F779AE"/>
<path d="M650.223 546.388C650.195 553.27 655.069 558.869 661.107 558.893C667.146 558.917 672.063 553.357 672.091 546.475C672.118 539.593 667.245 533.994 661.206 533.97C655.167 533.946 650.25 539.506 650.223 546.388Z" fill="#F779AE"/>
<path d="M650.455 487.819C650.428 494.702 655.301 500.3 661.34 500.324C667.378 500.348 672.296 494.788 672.323 487.906C672.35 481.024 667.477 475.425 661.438 475.401C655.4 475.377 650.482 480.937 650.455 487.819Z" fill="#F779AE"/>
<path d="M398.634 20.7557C398.607 27.6379 403.48 33.2365 409.519 33.2605C415.558 33.2844 420.475 27.7246 420.502 20.8424C420.53 13.9601 415.656 8.36151 409.618 8.33757C403.579 8.31363 398.662 13.8734 398.634 20.7557Z" fill="#F779AE"/>
<path d="M294.111 1011.66C294.083 1018.89 298.955 1024.77 304.994 1024.79C311.032 1024.82 315.951 1018.98 315.979 1011.75C316.008 1004.52 311.136 998.647 305.097 998.623C299.059 998.599 294.14 1004.44 294.111 1011.66Z" fill="#F779AE"/>
<path d="M601.082 254.591C601.055 261.473 605.928 267.072 611.967 267.096C618.006 267.12 622.923 261.56 622.95 254.678C622.978 247.795 618.105 242.197 612.066 242.173C606.027 242.149 601.11 247.709 601.082 254.591Z" fill="#F779AE"/>
<path d="M650.685 429.874C650.659 436.412 655.533 441.731 661.572 441.755C667.61 441.779 672.527 436.499 672.553 429.96C672.579 423.422 667.704 418.103 661.666 418.079C655.627 418.055 650.711 423.336 650.685 429.874Z" fill="#F779AE"/>
<path d="M40.211 1069.23C40.185 1075.77 45.0593 1081.09 51.098 1081.11C57.1367 1081.13 62.053 1075.85 62.0789 1069.31C62.1048 1062.78 57.2306 1057.46 51.1919 1057.43C45.1532 1057.41 40.2369 1062.69 40.211 1069.23Z" fill="#F779AE"/>
<path d="M-10.0854 1069.03C-10.1113 1075.57 -5.23708 1080.89 0.801585 1080.91C6.84025 1080.93 11.7566 1075.65 11.7825 1069.11C11.8085 1062.58 6.93413 1057.26 0.895461 1057.23C-5.14321 1057.21 -10.0595 1062.49 -10.0854 1069.03Z" fill="#F779AE"/>
<path d="M92.694 1069.44C92.668 1075.97 97.0528 1081.29 102.488 1081.31C107.922 1081.33 112.349 1076.05 112.375 1069.51C112.401 1062.98 108.016 1057.66 102.581 1057.64C97.1466 1057.61 92.7199 1062.9 92.694 1069.44Z" fill="#F779AE"/>
<path d="M652.175 605.589C652.149 612.127 656.534 617.445 661.969 617.466C667.403 617.488 671.83 612.205 671.856 605.667C671.882 599.129 667.497 593.811 662.062 593.789C656.628 593.768 652.201 599.05 652.175 605.589Z" fill="#F779AE"/>
<path d="M653.104 371.314C653.078 377.852 657.463 383.169 662.897 383.191C668.332 383.212 672.759 377.93 672.785 371.392C672.811 364.853 668.426 359.536 662.991 359.514C657.556 359.493 653.13 364.775 653.104 371.314Z" fill="#F779AE"/>
<path d="M142.99 1069.63C142.964 1076.17 147.349 1081.49 152.784 1081.51C158.219 1081.53 162.646 1076.25 162.671 1069.71C162.697 1063.17 158.313 1057.86 152.878 1057.84C147.443 1057.81 143.016 1063.1 142.99 1069.63Z" fill="#F779AE"/>
<path d="M548.471 838.21C548.445 844.748 553.32 850.068 559.358 850.092C565.397 850.116 570.313 844.835 570.339 838.297C570.365 831.759 565.491 826.439 559.452 826.415C553.414 826.391 548.497 831.672 548.471 838.21Z" fill="#F779AE"/>
<path d="M497.945 895.956C497.921 902.15 502.307 907.189 507.741 907.211C513.176 907.232 517.602 902.228 517.627 896.034C517.651 889.84 513.265 884.802 507.83 884.78C502.396 884.759 497.97 889.762 497.945 895.956Z" fill="#F779AE"/>
<path d="M551.251 137.254C551.226 143.448 555.612 148.487 561.047 148.508C566.482 148.53 570.907 143.526 570.932 137.332C570.956 131.138 566.57 126.099 561.136 126.078C555.701 126.056 551.275 131.06 551.251 137.254Z" fill="#F779AE"/>
<path d="M344.408 1011.86C344.382 1018.4 348.767 1023.72 354.201 1023.74C359.636 1023.76 364.063 1018.48 364.089 1011.94C364.115 1005.4 359.73 1000.09 354.295 1000.06C348.86 1000.04 344.434 1005.33 344.408 1011.86Z" fill="#F779AE"/>
<path d="M501.187 78.4859C501.162 84.6799 505.548 89.7187 510.983 89.7402C516.417 89.7618 520.843 84.758 520.868 78.5639C520.892 72.3699 516.506 67.3312 511.072 67.3096C505.637 67.2881 501.211 72.2919 501.187 78.4859Z" fill="#F779AE"/>
<path d="M193.284 1070.46C193.26 1076.65 197.645 1081.69 203.08 1081.71C208.515 1081.73 212.941 1076.73 212.965 1070.54C212.99 1064.34 208.604 1059.3 203.169 1059.28C197.734 1059.26 193.309 1064.26 193.284 1070.46Z" fill="#F779AE"/>
<path d="M601.187 779.849C601.163 785.699 605.061 790.457 609.892 790.476C614.723 790.495 618.658 785.769 618.681 779.919C618.704 774.069 614.807 769.311 609.976 769.292C605.145 769.273 601.21 774 601.187 779.849Z" fill="#F779AE"/>
<path d="M651.948 662.911C651.924 668.761 656.311 673.521 661.746 673.543C667.181 673.564 671.606 668.839 671.629 662.989C671.652 657.139 667.265 652.38 661.83 652.358C656.395 652.337 651.971 657.061 651.948 662.911Z" fill="#F779AE"/>
<path d="M653.333 313.368C653.309 319.562 657.695 324.601 663.13 324.622C668.564 324.644 672.99 319.64 673.015 313.446C673.039 307.252 668.653 302.213 663.219 302.192C657.784 302.17 653.358 307.174 653.333 313.368Z" fill="#F779AE"/>
<path d="M603.499 196.654C603.476 202.504 607.863 207.264 613.298 207.285C618.732 207.307 623.157 202.582 623.18 196.732C623.203 190.882 618.816 186.122 613.382 186.101C607.947 186.079 603.522 190.804 603.499 196.654Z" fill="#F779AE"/>
<path d="M447.414 954.949C447.391 960.799 451.778 965.558 457.213 965.58C462.648 965.602 467.072 960.877 467.096 955.027C467.119 949.177 462.732 944.417 457.297 944.396C451.862 944.374 447.438 949.099 447.414 954.949Z" fill="#F779AE"/>
<path d="M451.12 20.3407C451.097 26.1907 455.484 30.9504 460.919 30.972C466.353 30.9935 470.778 26.2687 470.801 20.4188C470.824 14.5688 466.437 9.80907 461.003 9.78752C455.568 9.76597 451.143 14.4908 451.12 20.3407Z" fill="#F779AE"/>
<path d="M245.767 1070.67C245.745 1076.17 249.644 1080.65 254.475 1080.67C259.306 1080.69 263.24 1076.24 263.262 1070.73C263.283 1065.23 259.385 1060.75 254.554 1060.73C249.723 1060.71 245.789 1065.16 245.767 1070.67Z" fill="#F779AE"/>
<path d="M399.078 1012.08C399.057 1017.24 402.467 1021.44 406.694 1021.46C410.921 1021.47 414.365 1017.3 414.385 1012.14C414.406 1006.98 410.995 1002.78 406.768 1002.76C402.541 1002.75 399.098 1006.92 399.078 1012.08Z" fill="#F779AE"/>
<path d="M653.902 721.489C653.882 726.65 657.292 730.848 661.519 730.865C665.746 730.882 669.189 726.711 669.21 721.549C669.23 716.388 665.82 712.19 661.593 712.173C657.366 712.156 653.923 716.327 653.902 721.489Z" fill="#F779AE"/>
<path d="M655.755 254.185C655.735 259.346 659.145 263.544 663.372 263.561C667.599 263.578 671.042 259.407 671.063 254.245C671.083 249.084 667.673 244.886 663.446 244.869C659.219 244.852 655.775 249.023 655.755 254.185Z" fill="#F779AE"/>
<path d="M552.615 896.173C552.596 900.991 555.518 904.908 559.141 904.922C562.764 904.937 565.717 901.043 565.736 896.225C565.755 891.408 562.833 887.49 559.21 887.476C555.587 887.462 552.634 891.356 552.615 896.173Z" fill="#F779AE"/>
<path d="M298.25 1070.87C298.231 1075.69 301.153 1079.61 304.776 1079.62C308.399 1079.64 311.352 1075.74 311.371 1070.93C311.39 1066.11 308.469 1062.19 304.845 1062.18C301.222 1062.16 298.269 1066.06 298.25 1070.87Z" fill="#F779AE"/>
<path d="M499.9 954.534C499.881 959.351 503.292 963.27 507.519 963.287C511.746 963.304 515.188 959.412 515.208 954.594C515.227 949.777 511.815 945.858 507.588 945.841C503.361 945.824 499.919 949.716 499.9 954.534Z" fill="#F779AE"/>
<path d="M555.856 78.7027C555.837 83.5202 558.759 87.4373 562.382 87.4517C566.005 87.466 568.958 83.5723 568.977 78.7547C568.996 73.9371 566.075 70.02 562.451 70.0057C558.828 69.9913 555.876 73.8851 555.856 78.7027Z" fill="#F779AE"/>
<path d="M603.141 838.427C603.124 842.9 606.046 846.538 609.67 846.553C613.293 846.567 616.244 842.952 616.262 838.479C616.28 834.005 613.357 830.367 609.734 830.353C606.111 830.339 603.159 833.953 603.141 838.427Z" fill="#F779AE"/>
<path d="M605.92 137.471C605.901 142.288 609.313 146.207 613.54 146.224C617.767 146.241 621.209 142.349 621.228 137.532C621.247 132.714 617.836 128.795 613.609 128.778C609.382 128.761 605.94 132.653 605.92 137.471Z" fill="#F779AE"/>
<path d="M503.603 20.5488C503.585 25.0223 506.998 28.6624 511.225 28.6791C515.452 28.6959 518.893 25.083 518.911 20.6095C518.928 16.1361 515.516 12.496 511.289 12.4792C507.062 12.4625 503.621 16.0754 503.603 20.5488Z" fill="#F779AE"/>
<path d="M44.3547 1127.19C44.3383 1131.32 47.2622 1134.68 50.8855 1134.69C54.5087 1134.71 57.4591 1131.37 57.4755 1127.24C57.4919 1123.11 54.5679 1119.75 50.9447 1119.74C47.3215 1119.73 44.3711 1123.06 44.3547 1127.19Z" fill="#F779AE"/>
<path d="M653.672 779.434C653.656 783.564 656.58 786.923 660.203 786.937C663.826 786.952 666.777 783.616 666.793 779.487C666.81 775.357 663.886 771.998 660.262 771.984C656.639 771.969 653.689 775.305 653.672 779.434Z" fill="#F779AE"/>
<path d="M-5.94162 1126.99C-5.95799 1131.12 -3.03411 1134.48 0.589096 1134.49C4.2123 1134.51 7.16278 1131.17 7.17916 1127.04C7.19553 1122.91 4.27159 1119.55 0.648386 1119.54C-2.97482 1119.53 -5.92524 1122.86 -5.94162 1126.99Z" fill="#F779AE"/>
<path d="M94.651 1127.39C94.6347 1131.52 97.5585 1134.88 101.182 1134.89C104.805 1134.91 107.755 1131.57 107.772 1127.44C107.788 1123.31 104.864 1119.95 101.241 1119.94C97.6178 1119.92 94.6674 1123.26 94.651 1127.39Z" fill="#F779AE"/>
<path d="M655.982 196.862C655.967 200.647 658.892 203.728 662.515 203.742C666.139 203.756 669.088 200.699 669.103 196.914C669.118 193.129 666.193 190.049 662.57 190.034C658.947 190.02 655.997 193.077 655.982 196.862Z" fill="#F779AE"/>
<path d="M147.134 1127.6C147.118 1131.73 149.552 1135.08 152.571 1135.1C155.591 1135.11 158.052 1131.77 158.068 1127.64C158.084 1123.51 155.65 1120.15 152.631 1120.14C149.611 1120.13 147.15 1123.47 147.134 1127.6Z" fill="#F779AE"/>
<path d="M451.561 1012.29C451.546 1016.07 453.981 1019.15 457.001 1019.16C460.02 1019.18 462.48 1016.12 462.495 1012.33C462.51 1008.55 460.074 1005.47 457.055 1005.46C454.036 1005.44 451.576 1008.5 451.561 1012.29Z" fill="#F779AE"/>
<path d="M348.549 1070.45C348.534 1074.24 351.459 1077.32 355.082 1077.33C358.705 1077.34 361.655 1074.29 361.67 1070.5C361.685 1066.72 358.76 1063.64 355.137 1063.62C351.513 1063.61 348.564 1066.66 348.549 1070.45Z" fill="#F779AE"/>
<path d="M197.43 1127.8C197.417 1131.24 199.853 1134.04 202.873 1134.05C205.892 1134.06 208.351 1131.28 208.364 1127.84C208.378 1124.4 205.942 1121.6 202.922 1121.59C199.903 1121.58 197.444 1124.36 197.43 1127.8Z" fill="#F779AE"/>
<path d="M554.57 954.751C554.559 957.503 556.508 959.743 558.924 959.752C561.339 959.762 563.306 957.538 563.317 954.785C563.328 952.032 561.379 949.793 558.963 949.783C556.548 949.774 554.581 951.998 554.57 954.751Z" fill="#F779AE"/>
<path d="M605.098 896.381C605.087 899.134 607.037 901.374 609.452 901.383C611.868 901.393 613.835 899.169 613.846 896.416C613.856 893.663 611.907 891.424 609.492 891.414C607.076 891.404 605.109 893.628 605.098 896.381Z" fill="#F779AE"/>
<path d="M249.909 1129.25C249.898 1132 251.847 1134.24 254.262 1134.25C256.678 1134.26 258.645 1132.04 258.656 1129.29C258.667 1126.53 256.717 1124.29 254.302 1124.28C251.887 1124.27 249.92 1126.5 249.909 1129.25Z" fill="#F779AE"/>
<path d="M403.219 1070.67C403.209 1073.08 404.67 1075.03 406.482 1075.04C408.294 1075.05 409.77 1073.1 409.779 1070.69C409.789 1068.28 408.328 1066.33 406.517 1066.32C404.705 1066.31 403.229 1068.26 403.219 1070.67Z" fill="#F779AE"/>
<path d="M610.526 78.9193C610.515 81.6722 611.975 83.9097 613.787 83.9169C615.598 83.9241 617.076 81.6982 617.087 78.9453C617.098 76.1924 615.638 73.9549 613.826 73.9477C612.015 73.9406 610.537 76.1664 610.526 78.9193Z" fill="#F779AE"/>
<path d="M558.273 20.7656C558.263 23.1743 560.214 25.1348 562.629 25.1444C565.045 25.154 567.011 23.209 567.02 20.8002C567.03 18.3914 565.079 16.431 562.664 16.4214C560.248 16.4118 558.283 18.3568 558.273 20.7656Z" fill="#F779AE"/>
<path d="M504.044 1012.5C504.034 1014.91 505.495 1016.86 507.307 1016.87C509.118 1016.88 510.595 1014.93 510.604 1012.52C510.614 1010.11 509.153 1008.16 507.341 1008.15C505.53 1008.14 504.053 1010.09 504.044 1012.5Z" fill="#F779AE"/>
<path d="M660.588 138.311C660.579 140.719 662.039 142.678 663.851 142.685C665.663 142.692 667.139 140.745 667.148 138.337C667.158 135.928 665.697 133.969 663.886 133.962C662.074 133.955 660.598 135.902 660.588 138.311Z" fill="#F779AE"/>
<path d="M657.811 838.644C657.802 841.052 659.263 843.011 661.074 843.018C662.886 843.025 664.362 841.078 664.372 838.67C664.381 836.261 662.92 834.302 661.109 834.295C659.297 834.288 657.821 836.235 657.811 838.644Z" fill="#F779AE"/>
<path d="M302.392 1129.46C302.383 1131.52 303.356 1133.2 304.564 1133.21C305.771 1133.21 306.757 1131.54 306.765 1129.48C306.773 1127.41 305.801 1125.73 304.593 1125.73C303.386 1125.73 302.4 1127.4 302.392 1129.46Z" fill="#F779AE"/>
</svg>
