<svg width="861" height="619" viewBox="0 0 861 619" fill="none" xmlns="http://www.w3.org/2000/svg">
<path d="M365.017 360.848L370.799 350.794C396.405 328.137 430.924 362.905 399.949 380.203L393.101 382.405C400.259 383.303 406.213 387.069 409.964 392.198L412.924 397.703C415.161 389.619 423.937 383.506 433.574 382.405L424.212 379.507C401.326 367.28 417.157 337.698 443.313 344.652C462.448 349.751 464.272 372.206 446.824 380L438.529 382.376C448.269 383.477 457.733 389.938 459.179 398.369L462.965 392.169C471.362 380.724 491.22 380.087 500.684 390.923C511.078 402.831 503.196 418.709 486.436 421.664C512.42 426.908 511.938 457.012 485.61 461.3C511.766 465.444 512.936 494.012 488.088 500.937C502.508 503.573 509.495 517.423 503.609 528.607C495.556 543.847 467.163 543.325 460.831 527.477L459.179 527.013C458.766 530.722 454.326 534.865 450.85 537.038C448.372 538.602 445.481 539.153 443.485 540.92C451.986 542.775 457.802 549.265 459.592 556.248C463.068 538.863 492.424 534.372 502.267 550.192C515.345 571.227 483.235 589.481 464.617 572.154L459.179 563.172C458.318 570.387 451.814 575.921 444.07 578.615C442.177 579.282 439.94 578.847 438.529 580.209C463.068 582.295 466.441 612.022 442.659 617.759C411.066 625.379 400.672 583.947 433.539 580.209C432.128 578.847 429.891 579.282 427.998 578.615C420.392 575.979 415.161 571.285 412.89 564.563L409.964 570.068C406.041 575.457 399.812 579.108 392.275 579.861C392.653 581.02 395.338 580.528 396.99 581.078C413.303 586.554 417.501 604.75 403.735 614.195C388.592 624.568 367.117 616.021 365.809 599.998C364.329 600.317 365.121 602.78 364.605 604.17C359.649 617.208 340.892 622.134 328.227 613.21C315.562 604.286 317.834 589.046 331.531 581.889L338.552 579.137C333.045 578.586 327.47 575.863 324.097 572.183C321 568.822 320.484 565.374 318.315 561.753C315.837 582.411 280.527 585.25 273.713 565.229C264.661 538.631 313.876 529.881 318.315 557.551C320.415 554.19 320.897 550.685 323.684 547.468C326.678 544.05 331.29 541.732 336.074 540.515C327.711 537.82 320.243 532.663 318.694 524.869L312.017 534.169C280.871 554.886 252.788 511.802 289.819 501.197C286.997 499.082 283.418 498.474 280.355 496.33C264.455 485.204 272.646 462.865 293.157 461.242C265.831 457.157 265.315 426.619 292.332 421.606C285.345 420.563 279.047 417.434 275.64 411.987C260.118 387.011 307.268 368.584 317.902 398.659C318.247 399.673 317.386 399.876 319.554 399.673C319.417 394.545 324.235 388.692 329.191 385.881C332.632 383.911 336.625 383.419 340.204 381.941C321.172 380.463 312.912 360.153 326.575 348.911C340.238 337.669 364.054 344.826 364.983 360.732L365.017 360.848ZM384.807 381.709C374.172 381.217 367.564 372.959 365.396 365.02C364.398 373.626 355.863 381.651 345.16 381.709L357.136 386.577C360.991 389.242 363.538 392.488 365.396 396.312C367.977 391.242 372.21 386.606 378.164 384.114C380.332 383.187 383.499 383.245 384.807 381.709ZM319.554 405.352C317.386 405.149 318.247 405.352 317.902 406.366C314.908 414.797 310.124 420.36 298.939 421.345L312.052 427.314L317.937 435.919L323.684 427.922C326.713 425.431 329.948 422.244 334.456 422.012C333.149 420.129 330.292 419.868 328.261 418.535C323.787 415.609 319.417 410.219 319.589 405.323L319.554 405.352ZM478.142 421.345C468.815 420.621 462.07 413.986 459.557 406.743C457.871 413.928 451.47 417.782 445.103 422.041C451.263 423.75 457.424 428.792 459.144 434.123L460.796 434.586C461.278 430.53 466.785 425.836 470.949 424.011C473.117 423.055 476.696 423.055 478.142 421.374V421.345ZM426.966 422.041C421.149 418.013 414.266 414.247 412.924 407.438C411.582 407.757 411.96 409.872 411.203 411.205C409.001 415.029 404.561 419.259 399.709 420.679C405.009 424.156 409.93 427.488 413.337 432.5C416.366 428.038 420.874 423.634 426.966 422.07V422.041ZM378.233 420.65L370.386 415.782L365.052 408.829C363.297 415.464 356.999 418.448 351.01 422.041C357.756 422.678 361.301 428.241 365.878 431.776C367.84 426.619 373.897 424.069 378.268 420.65H378.233ZM332.804 461.677C326.575 457.563 320.656 453.854 318.35 447.074C315.115 454.665 307.681 460.025 298.113 461.329C307.543 462.112 315.011 467.617 318.35 474.889C320.518 469.094 325.68 463.56 332.804 461.648V461.677ZM460.796 448.465L459.144 448.929C460.521 453.304 446.996 459.881 446.755 460.663C446.376 461.909 453.569 464.574 454.533 465.936L460.418 473.527C463.446 466.863 470.742 462.517 479.002 461.358C471.052 459.794 462.483 455.679 460.831 448.494L460.796 448.465ZM425.279 460.315C419.91 458.635 416.056 454.578 413.303 450.58C410.274 454.491 406.867 458.055 402.152 460.663C406.42 463.473 411.066 466.516 413.268 470.746C416.297 466.979 419.635 463.676 424.729 461.764L425.245 460.315H425.279ZM352.628 461.677C357.893 462.836 361.576 466.516 364.605 470.021L375.755 460.634C371.556 458.142 367.805 455.129 365.465 451.246L352.662 461.677H352.628ZM318.728 515.221C320.036 508.817 325.405 504.095 331.944 500.965C325.818 497.72 320.277 493.519 318.315 487.406C316.595 490.477 314.736 493.432 311.742 495.779C308.438 498.358 304.687 499.053 301.383 501.313C305.547 501.603 308.851 503.921 312.017 505.92L318.694 515.221H318.728ZM476.524 501.313C473.943 499.198 470.467 498.792 467.404 496.822C464.341 494.852 461.932 491.868 460.418 488.796C457.561 494.099 452.95 498.329 446.789 500.965C452.192 503.66 458.146 507.658 459.179 513.134L460.831 512.671C462.655 507.079 469.538 501.864 476.524 501.284V501.313ZM425.279 500.618C419.67 499.111 416.607 495.026 412.89 491.578C411.754 495.229 406.833 499.024 402.978 500.618V501.632C406.66 504.066 410.343 506.702 411.995 510.585L413.681 511.019L416.572 506.847L425.245 500.618H425.279ZM374.895 500.647C370.662 499.169 367.461 495.287 364.57 492.302C361.714 496.127 357.79 498.532 353.419 500.994C358.926 503.428 362.161 506.992 365.775 511.077C366.291 508.904 368.562 506.442 370.283 504.79C371.281 503.863 375.927 501.98 374.86 500.647H374.895ZM379.851 540.254C373.312 538.689 368.287 534.198 365.396 529.128C361.92 534.749 356.173 538.313 349.289 540.602C357.033 542.311 362.608 547.324 365.396 553.466L370.352 546.512L379.851 540.283V540.254ZM413.716 529.128L412.029 529.563C409.586 534.546 404.148 538.776 398.057 540.254L407.934 546.86C410.102 549.178 411.926 551.786 412.098 554.828L417.846 546.831C420.805 544.05 424.178 541.79 428.618 540.92C426.105 539.037 423.146 538.313 420.358 536.429C417.777 534.662 414.748 531.852 413.75 529.128H413.716ZM385.632 579.89C375.824 578.963 369.182 573.313 365.396 565.983C362.367 573.023 355.519 577.891 346.812 579.542C356.207 581.658 365.327 588.553 364.983 597.274C367.048 595.246 367.323 592.465 368.975 589.857C371.143 586.409 374.034 584.062 378.199 582.324L385.632 579.919V579.89Z" fill="#6ADEDC"/>
<path d="M529.5 499.744C541.926 499.744 552 491.373 552 481.047C552 470.72 541.926 462.349 529.5 462.349C517.074 462.349 507 470.72 507 481.047C507 491.373 517.074 499.744 529.5 499.744Z" fill="#6ADEDC"/>
<path d="M529.5 460.649C541.926 460.649 552 452.278 552 441.951C552 431.624 541.926 423.253 529.5 423.253C517.074 423.253 507 431.624 507 441.951C507 452.278 517.074 460.649 529.5 460.649Z" fill="#6ADEDC"/>
<path d="M248.5 499.744C260.926 499.744 271 491.373 271 481.047C271 470.72 260.926 462.349 248.5 462.349C236.074 462.349 226 470.72 226 481.047C226 491.373 236.074 499.744 248.5 499.744Z" fill="#6ADEDC"/>
<path d="M529.5 538.84C541.926 538.84 552 530.469 552 520.142C552 509.816 541.926 501.444 529.5 501.444C517.074 501.444 507 509.816 507 520.142C507 530.469 517.074 538.84 529.5 538.84Z" fill="#6ADEDC"/>
<path d="M482.5 380.758C494.926 380.758 505 372.386 505 362.06C505 351.733 494.926 343.362 482.5 343.362C470.074 343.362 460 351.733 460 362.06C460 372.386 470.074 380.758 482.5 380.758Z" fill="#6ADEDC"/>
<path d="M249 460.649C261.15 460.649 271 452.278 271 441.951C271 431.624 261.15 423.253 249 423.253C236.85 423.253 227 431.624 227 441.951C227 452.278 236.85 460.649 249 460.649Z" fill="#6ADEDC"/>
<path d="M295.5 380.758C307.926 380.758 318 372.386 318 362.06C318 351.733 307.926 343.362 295.5 343.362C283.074 343.362 273 351.733 273 362.06C273 372.386 283.074 380.758 295.5 380.758Z" fill="#6ADEDC"/>
<path d="M482.5 618.731C494.926 618.731 505 610.36 505 600.033C505 589.707 494.926 581.335 482.5 581.335C470.074 581.335 460 589.707 460 600.033C460 610.36 470.074 618.731 482.5 618.731Z" fill="#6ADEDC"/>
<path d="M248 538.84C260.15 538.84 270 530.469 270 520.142C270 509.816 260.15 501.444 248 501.444C235.85 501.444 226 509.816 226 520.142C226 530.469 235.85 538.84 248 538.84Z" fill="#6ADEDC"/>
<path d="M389 341.662C401.15 341.662 411 333.291 411 322.964C411 312.638 401.15 304.266 389 304.266C376.85 304.266 367 312.638 367 322.964C367 333.291 376.85 341.662 389 341.662Z" fill="#6ADEDC"/>
<path d="M295.5 617.031C307.926 617.031 318 608.66 318 598.334C318 588.007 307.926 579.636 295.5 579.636C283.074 579.636 273 588.007 273 598.334C273 608.66 283.074 617.031 295.5 617.031Z" fill="#6ADEDC"/>
<path d="M436 341.662C448.15 341.662 458 333.291 458 322.964C458 312.638 448.15 304.266 436 304.266C423.85 304.266 414 312.638 414 322.964C414 333.291 423.85 341.662 436 341.662Z" fill="#6ADEDC"/>
<path d="M530 419.853C542.15 419.853 552 411.863 552 402.005C552 392.148 542.15 384.157 530 384.157C517.85 384.157 508 392.148 508 402.005C508 411.863 517.85 419.853 530 419.853Z" fill="#6ADEDC"/>
<path d="M342.5 341.662C354.374 341.662 364 333.671 364 323.814C364 313.957 354.374 305.966 342.5 305.966C330.626 305.966 321 313.957 321 323.814C321 333.671 330.626 341.662 342.5 341.662Z" fill="#6ADEDC"/>
<path d="M249 419.853C261.15 419.853 271 411.863 271 402.005C271 392.148 261.15 384.157 249 384.157C236.85 384.157 227 392.148 227 402.005C227 411.863 236.85 419.853 249 419.853Z" fill="#6ADEDC"/>
<path d="M248 577.936C260.15 577.936 270 569.564 270 559.238C270 548.911 260.15 540.54 248 540.54C235.85 540.54 226 548.911 226 559.238C226 569.564 235.85 577.936 248 577.936Z" fill="#6ADEDC"/>
<path d="M530 577.936C542.15 577.936 552 569.564 552 559.238C552 548.911 542.15 540.54 530 540.54C517.85 540.54 508 548.911 508 559.238C508 569.564 517.85 577.936 530 577.936Z" fill="#6ADEDC"/>
<path d="M295.5 341.662C307.374 341.662 317 333.291 317 322.964C317 312.638 307.374 304.266 295.5 304.266C283.626 304.266 274 312.638 274 322.964C274 333.291 283.626 341.662 295.5 341.662Z" fill="#6ADEDC"/>
<path d="M482.5 341.662C494.374 341.662 504 333.671 504 323.814C504 313.957 494.374 305.966 482.5 305.966C470.626 305.966 461 313.957 461 323.814C461 333.671 470.626 341.662 482.5 341.662Z" fill="#6ADEDC"/>
<path d="M529.5 380.758C541.374 380.758 551 372.767 551 362.91C551 353.053 541.374 345.062 529.5 345.062C517.626 345.062 508 353.053 508 362.91C508 372.767 517.626 380.758 529.5 380.758Z" fill="#6ADEDC"/>
<path d="M529.5 617.031C541.374 617.031 551 609.041 551 599.183C551 589.326 541.374 581.335 529.5 581.335C517.626 581.335 508 589.326 508 599.183C508 609.041 517.626 617.031 529.5 617.031Z" fill="#6ADEDC"/>
<path d="M249 380.758C260.598 380.758 270 372.767 270 362.91C270 353.053 260.598 345.062 249 345.062C237.402 345.062 228 353.053 228 362.91C228 372.767 237.402 380.758 249 380.758Z" fill="#6ADEDC"/>
<path d="M248 617.031C259.598 617.031 269 609.041 269 599.183C269 589.326 259.598 581.335 248 581.335C236.402 581.335 227 589.326 227 599.183C227 609.041 236.402 617.031 248 617.031Z" fill="#6ADEDC"/>
<path d="M576 498.045C587.598 498.045 597 490.054 597 480.197C597 470.339 587.598 462.349 576 462.349C564.402 462.349 555 470.339 555 480.197C555 490.054 564.402 498.045 576 498.045Z" fill="#6ADEDC"/>
<path d="M202 498.045C213.598 498.045 223 490.434 223 481.047C223 471.659 213.598 464.048 202 464.048C190.402 464.048 181 471.659 181 481.047C181 490.434 190.402 498.045 202 498.045Z" fill="#6ADEDC"/>
<path d="M576 537.14C587.598 537.14 597 529.15 597 519.292C597 509.435 587.598 501.444 576 501.444C564.402 501.444 555 509.435 555 519.292C555 529.15 564.402 537.14 576 537.14Z" fill="#6ADEDC"/>
<path d="M576 458.949C587.598 458.949 597 450.958 597 441.101C597 431.244 587.598 423.253 576 423.253C564.402 423.253 555 431.244 555 441.101C555 450.958 564.402 458.949 576 458.949Z" fill="#6ADEDC"/>
<path d="M389 300.867C400.598 300.867 410 293.256 410 283.868C410 274.481 400.598 266.87 389 266.87C377.402 266.87 368 274.481 368 283.868C368 293.256 377.402 300.867 389 300.867Z" fill="#6ADEDC"/>
<path d="M202 537.14C213.598 537.14 223 529.53 223 520.142C223 510.754 213.598 503.144 202 503.144C190.402 503.144 181 510.754 181 520.142C181 529.53 190.402 537.14 202 537.14Z" fill="#6ADEDC"/>
<path d="M202 458.949C213.598 458.949 223 450.958 223 441.101C223 431.244 213.598 423.253 202 423.253C190.402 423.253 181 431.244 181 441.101C181 450.958 190.402 458.949 202 458.949Z" fill="#6ADEDC"/>
<path d="M342.5 300.867C353.822 300.867 363 293.256 363 283.868C363 274.481 353.822 266.87 342.5 266.87C331.178 266.87 322 274.481 322 283.868C322 293.256 331.178 300.867 342.5 300.867Z" fill="#6ADEDC"/>
<path d="M436 300.867C447.598 300.867 457 293.256 457 283.868C457 274.481 447.598 266.87 436 266.87C424.402 266.87 415 274.481 415 283.868C415 293.256 424.402 300.867 436 300.867Z" fill="#6ADEDC"/>
<path d="M576 577.936C587.598 577.936 597 569.945 597 560.088C597 550.231 587.598 542.24 576 542.24C564.402 542.24 555 550.231 555 560.088C555 569.945 564.402 577.936 576 577.936Z" fill="#6ADEDC"/>
<path d="M577 419.853C588.598 419.853 598 411.863 598 402.005C598 392.148 588.598 384.157 577 384.157C565.402 384.157 556 392.148 556 402.005C556 411.863 565.402 419.853 577 419.853Z" fill="#6ADEDC"/>
<path d="M201.5 576.236C212.822 576.236 222 568.626 222 559.238C222 549.85 212.822 542.24 201.5 542.24C190.178 542.24 181 549.85 181 559.238C181 568.626 190.178 576.236 201.5 576.236Z" fill="#6ADEDC"/>
<path d="M201.5 419.853C212.822 419.853 222 411.863 222 402.005C222 392.148 212.822 384.157 201.5 384.157C190.178 384.157 181 392.148 181 402.005C181 411.863 190.178 419.853 201.5 419.853Z" fill="#6ADEDC"/>
<path d="M529.5 341.662C540.822 341.662 550 333.671 550 323.814C550 313.957 540.822 305.966 529.5 305.966C518.178 305.966 509 313.957 509 323.814C509 333.671 518.178 341.662 529.5 341.662Z" fill="#6ADEDC"/>
<path d="M249 339.962C260.046 339.962 269 332.352 269 322.964C269 313.576 260.046 305.966 249 305.966C237.954 305.966 229 313.576 229 322.964C229 332.352 237.954 339.962 249 339.962Z" fill="#6ADEDC"/>
<path d="M482.5 300.867C493.822 300.867 503 293.256 503 283.868C503 274.481 493.822 266.87 482.5 266.87C471.178 266.87 462 274.481 462 283.868C462 293.256 471.178 300.867 482.5 300.867Z" fill="#6ADEDC"/>
<path d="M295.5 300.867C306.822 300.867 316 293.256 316 283.868C316 274.481 306.822 266.87 295.5 266.87C284.178 266.87 275 274.481 275 283.868C275 293.256 284.178 300.867 295.5 300.867Z" fill="#6ADEDC"/>
<path d="M577 379.058C588.046 379.058 597 371.448 597 362.06C597 352.672 588.046 345.062 577 345.062C565.954 345.062 557 352.672 557 362.06C557 371.448 565.954 379.058 577 379.058Z" fill="#6ADEDC"/>
<path d="M576 617.031C587.046 617.031 596 609.421 596 600.033C596 590.646 587.046 583.035 576 583.035C564.954 583.035 556 590.646 556 600.033C556 609.421 564.954 617.031 576 617.031Z" fill="#6ADEDC"/>
<path d="M202 615.332C213.046 615.332 222 607.721 222 598.334C222 588.946 213.046 581.335 202 581.335C190.954 581.335 182 588.946 182 598.334C182 607.721 190.954 615.332 202 615.332Z" fill="#6ADEDC"/>
<path d="M202 379.058C213.046 379.058 222 371.448 222 362.06C222 352.672 213.046 345.062 202 345.062C190.954 345.062 182 352.672 182 362.06C182 371.448 190.954 379.058 202 379.058Z" fill="#6ADEDC"/>
<path d="M389 260.071C400.046 260.071 409 252.841 409 243.923C409 235.005 400.046 227.775 389 227.775C377.954 227.775 369 235.005 369 243.923C369 252.841 377.954 260.071 389 260.071Z" fill="#6ADEDC"/>
<path d="M623.5 498.045C634.27 498.045 643 490.434 643 481.047C643 471.659 634.27 464.048 623.5 464.048C612.73 464.048 604 471.659 604 481.047C604 490.434 612.73 498.045 623.5 498.045Z" fill="#6ADEDC"/>
<path d="M342.5 260.071C353.27 260.071 362 252.841 362 243.923C362 235.005 353.27 227.775 342.5 227.775C331.73 227.775 323 235.005 323 243.923C323 252.841 331.73 260.071 342.5 260.071Z" fill="#6ADEDC"/>
<path d="M623.5 457.249C634.27 457.249 643 450.019 643 441.101C643 432.183 634.27 424.953 623.5 424.953C612.73 424.953 604 432.183 604 441.101C604 450.019 612.73 457.249 623.5 457.249Z" fill="#6ADEDC"/>
<path d="M436 260.071C447.046 260.071 456 252.841 456 243.923C456 235.005 447.046 227.775 436 227.775C424.954 227.775 416 235.005 416 243.923C416 252.841 424.954 260.071 436 260.071Z" fill="#6ADEDC"/>
<path d="M623.5 537.14C634.27 537.14 643 529.53 643 520.142C643 510.754 634.27 503.144 623.5 503.144C612.73 503.144 604 510.754 604 520.142C604 529.53 612.73 537.14 623.5 537.14Z" fill="#6ADEDC"/>
<path d="M154.5 498.045C165.27 498.045 174 490.434 174 481.047C174 471.659 165.27 464.048 154.5 464.048C143.73 464.048 135 471.659 135 481.047C135 490.434 143.73 498.045 154.5 498.045Z" fill="#6ADEDC"/>
<path d="M529.5 300.867C540.27 300.867 549 293.256 549 283.868C549 274.481 540.27 266.87 529.5 266.87C518.73 266.87 510 274.481 510 283.868C510 293.256 518.73 300.867 529.5 300.867Z" fill="#6ADEDC"/>
<path d="M154.5 457.249C165.27 457.249 174 450.019 174 441.101C174 432.183 165.27 424.953 154.5 424.953C143.73 424.953 135 432.183 135 441.101C135 450.019 143.73 457.249 154.5 457.249Z" fill="#6ADEDC"/>
<path d="M577 339.962C588.046 339.962 597 332.732 597 323.814C597 314.896 588.046 307.666 577 307.666C565.954 307.666 557 314.896 557 323.814C557 332.732 565.954 339.962 577 339.962Z" fill="#6ADEDC"/>
<path d="M154.5 537.14C165.27 537.14 174 529.53 174 520.142C174 510.755 165.27 503.144 154.5 503.144C143.73 503.144 135 510.755 135 520.142C135 529.53 143.73 537.14 154.5 537.14Z" fill="#6ADEDC"/>
<path d="M249 300.867C260.046 300.867 269 293.256 269 283.868C269 274.481 260.046 266.87 249 266.87C237.954 266.87 229 274.481 229 283.868C229 293.256 237.954 300.867 249 300.867Z" fill="#6ADEDC"/>
<path d="M201.5 338.262C212.27 338.262 221 331.033 221 322.114C221 313.196 212.27 305.966 201.5 305.966C190.73 305.966 182 313.196 182 322.114C182 331.033 190.73 338.262 201.5 338.262Z" fill="#6ADEDC"/>
<path d="M623.5 418.154C634.27 418.154 643 410.924 643 402.005C643 393.087 634.27 385.857 623.5 385.857C612.73 385.857 604 393.087 604 402.005C604 410.924 612.73 418.154 623.5 418.154Z" fill="#6ADEDC"/>
<path d="M154.5 418.154C165.27 418.154 174 410.924 174 402.005C174 393.087 165.27 385.857 154.5 385.857C143.73 385.857 135 393.087 135 402.005C135 410.924 143.73 418.154 154.5 418.154Z" fill="#6ADEDC"/>
<path d="M295.5 260.071C306.27 260.071 315 252.841 315 243.923C315 235.005 306.27 227.775 295.5 227.775C284.73 227.775 276 235.005 276 243.923C276 252.841 284.73 260.071 295.5 260.071Z" fill="#6ADEDC"/>
<path d="M482.5 260.071C493.27 260.071 502 252.841 502 243.923C502 235.005 493.27 227.775 482.5 227.775C471.73 227.775 463 235.005 463 243.923C463 252.841 471.73 260.071 482.5 260.071Z" fill="#6ADEDC"/>
<path d="M623.5 576.236C634.27 576.236 643 569.006 643 560.088C643 551.169 634.27 543.94 623.5 543.94C612.73 543.94 604 551.169 604 560.088C604 569.006 612.73 576.236 623.5 576.236Z" fill="#6ADEDC"/>
<path d="M154.5 576.236C165.27 576.236 174 569.006 174 560.088C174 551.169 165.27 543.94 154.5 543.94C143.73 543.94 135 551.169 135 560.088C135 569.006 143.73 576.236 154.5 576.236Z" fill="#6ADEDC"/>
<path d="M623 379.058C633.493 379.058 642 371.828 642 362.91C642 353.991 633.493 346.761 623 346.761C612.507 346.761 604 353.991 604 362.91C604 371.828 612.507 379.058 623 379.058Z" fill="#6ADEDC"/>
<path d="M623 615.332C633.493 615.332 642 608.102 642 599.183C642 590.265 633.493 583.035 623 583.035C612.507 583.035 604 590.265 604 599.183C604 608.102 612.507 615.332 623 615.332Z" fill="#6ADEDC"/>
<path d="M154.5 379.058C164.717 379.058 173 371.828 173 362.91C173 353.991 164.717 346.761 154.5 346.761C144.283 346.761 136 353.991 136 362.91C136 371.828 144.283 379.058 154.5 379.058Z" fill="#6ADEDC"/>
<path d="M154.5 613.632C164.717 613.632 173 606.783 173 598.334C173 589.884 164.717 583.035 154.5 583.035C144.283 583.035 136 589.884 136 598.334C136 606.783 144.283 613.632 154.5 613.632Z" fill="#6ADEDC"/>
<path d="M577 299.167C587.493 299.167 596 292.318 596 283.868C596 275.419 587.493 268.57 577 268.57C566.507 268.57 558 275.419 558 283.868C558 292.318 566.507 299.167 577 299.167Z" fill="#6ADEDC"/>
<path d="M201.5 299.167C211.717 299.167 220 292.318 220 283.868C220 275.419 211.717 268.57 201.5 268.57C191.283 268.57 183 275.419 183 283.868C183 292.318 191.283 299.167 201.5 299.167Z" fill="#6ADEDC"/>
<path d="M529.5 260.071C539.717 260.071 548 252.841 548 243.923C548 235.005 539.717 227.775 529.5 227.775C519.283 227.775 511 235.005 511 243.923C511 252.841 519.283 260.071 529.5 260.071Z" fill="#6ADEDC"/>
<path d="M388.5 220.976C398.717 220.976 407 214.126 407 205.677C407 197.228 398.717 190.379 388.5 190.379C378.283 190.379 370 197.228 370 205.677C370 214.126 378.283 220.976 388.5 220.976Z" fill="#6ADEDC"/>
<path d="M249 260.071C259.493 260.071 268 252.841 268 243.923C268 235.005 259.493 227.775 249 227.775C238.507 227.775 230 235.005 230 243.923C230 252.841 238.507 260.071 249 260.071Z" fill="#6ADEDC"/>
<path d="M342.5 220.976C352.717 220.976 361 214.126 361 205.677C361 197.228 352.717 190.379 342.5 190.379C332.283 190.379 324 197.228 324 205.677C324 214.126 332.283 220.976 342.5 220.976Z" fill="#6ADEDC"/>
<path d="M436.5 220.976C446.717 220.976 455 214.126 455 205.677C455 197.228 446.717 190.379 436.5 190.379C426.283 190.379 418 197.228 418 205.677C418 214.126 426.283 220.976 436.5 220.976Z" fill="#6ADEDC"/>
<path d="M623.5 338.262C633.717 338.262 642 331.413 642 322.964C642 314.515 633.717 307.666 623.5 307.666C613.283 307.666 605 314.515 605 322.964C605 331.413 613.283 338.262 623.5 338.262Z" fill="#6ADEDC"/>
<path d="M670.5 496.345C680.717 496.345 689 489.496 689 481.047C689 472.598 680.717 465.748 670.5 465.748C660.283 465.748 652 472.598 652 481.047C652 489.496 660.283 496.345 670.5 496.345Z" fill="#6ADEDC"/>
<path d="M154.5 338.262C164.717 338.262 173 331.413 173 322.964C173 314.515 164.717 307.666 154.5 307.666C144.283 307.666 136 314.515 136 322.964C136 331.413 144.283 338.262 154.5 338.262Z" fill="#6ADEDC"/>
<path d="M670.5 457.249C680.717 457.249 689 450.4 689 441.951C689 433.502 680.717 426.653 670.5 426.653C660.283 426.653 652 433.502 652 441.951C652 450.4 660.283 457.249 670.5 457.249Z" fill="#6ADEDC"/>
<path d="M108 496.345C117.941 496.345 126 489.496 126 481.047C126 472.598 117.941 465.748 108 465.748C98.0589 465.748 90 472.598 90 481.047C90 489.496 98.0589 496.345 108 496.345Z" fill="#6ADEDC"/>
<path d="M670.5 535.441C680.717 535.441 689 528.591 689 520.142C689 511.693 680.717 504.844 670.5 504.844C660.283 504.844 652 511.693 652 520.142C652 528.591 660.283 535.441 670.5 535.441Z" fill="#6ADEDC"/>
<path d="M482.5 220.976C492.717 220.976 501 214.126 501 205.677C501 197.228 492.717 190.379 482.5 190.379C472.283 190.379 464 197.228 464 205.677C464 214.126 472.283 220.976 482.5 220.976Z" fill="#6ADEDC"/>
<path d="M108 455.549C117.941 455.549 126 449.081 126 441.101C126 433.121 117.941 426.653 108 426.653C98.0589 426.653 90 433.121 90 441.101C90 449.081 98.0589 455.549 108 455.549Z" fill="#6ADEDC"/>
<path d="M108 535.441C117.941 535.441 126 528.591 126 520.142C126 511.693 117.941 504.844 108 504.844C98.0589 504.844 90 511.693 90 520.142C90 528.591 98.0589 535.441 108 535.441Z" fill="#6ADEDC"/>
<path d="M295 220.976C304.941 220.976 313 214.126 313 205.677C313 197.228 304.941 190.379 295 190.379C285.059 190.379 277 197.228 277 205.677C277 214.126 285.059 220.976 295 220.976Z" fill="#6ADEDC"/>
<path d="M670.5 574.536C680.165 574.536 688 567.687 688 559.238C688 550.789 680.165 543.94 670.5 543.94C660.835 543.94 653 550.789 653 559.238C653 567.687 660.835 574.536 670.5 574.536Z" fill="#6ADEDC"/>
<path d="M670.5 416.454C680.165 416.454 688 409.985 688 402.005C688 394.026 680.165 387.557 670.5 387.557C660.835 387.557 653 394.026 653 402.005C653 409.985 660.835 416.454 670.5 416.454Z" fill="#6ADEDC"/>
<path d="M108 416.454C117.941 416.454 126 409.985 126 402.005C126 394.026 117.941 387.557 108 387.557C98.0589 387.557 90 394.026 90 402.005C90 409.985 98.0589 416.454 108 416.454Z" fill="#6ADEDC"/>
<path d="M108 574.536C117.941 574.536 126 567.687 126 559.238C126 550.789 117.941 543.94 108 543.94C98.0589 543.94 90 550.789 90 559.238C90 567.687 98.0589 574.536 108 574.536Z" fill="#6ADEDC"/>
<path d="M576.5 258.371C586.165 258.371 594 251.903 594 243.923C594 235.943 586.165 229.475 576.5 229.475C566.835 229.475 559 235.943 559 243.923C559 251.903 566.835 258.371 576.5 258.371Z" fill="#6ADEDC"/>
<path d="M623.5 299.167C633.165 299.167 641 292.318 641 283.868C641 275.419 633.165 268.57 623.5 268.57C613.835 268.57 606 275.419 606 283.868C606 292.318 613.835 299.167 623.5 299.167Z" fill="#6ADEDC"/>
<path d="M201.5 258.371C211.165 258.371 219 251.903 219 243.923C219 235.943 211.165 229.475 201.5 229.475C191.835 229.475 184 235.943 184 243.923C184 251.903 191.835 258.371 201.5 258.371Z" fill="#6ADEDC"/>
<path d="M529.5 219.276C539.165 219.276 547 212.807 547 204.827C547 196.848 539.165 190.379 529.5 190.379C519.835 190.379 512 196.848 512 204.827C512 212.807 519.835 219.276 529.5 219.276Z" fill="#6ADEDC"/>
<path d="M249 219.276C258.389 219.276 266 212.807 266 204.827C266 196.848 258.389 190.379 249 190.379C239.611 190.379 232 196.848 232 204.827C232 212.807 239.611 219.276 249 219.276Z" fill="#6ADEDC"/>
<path d="M670.5 613.632C680.165 613.632 688 607.163 688 599.183C688 591.204 680.165 584.735 670.5 584.735C660.835 584.735 653 591.204 653 599.183C653 607.163 660.835 613.632 670.5 613.632Z" fill="#6ADEDC"/>
<path d="M670.5 377.358C680.165 377.358 688 370.889 688 362.91C688 354.93 680.165 348.461 670.5 348.461C660.835 348.461 653 354.93 653 362.91C653 370.889 660.835 377.358 670.5 377.358Z" fill="#6ADEDC"/>
<path d="M154.5 299.167C164.165 299.167 172 292.317 172 283.868C172 275.419 164.165 268.57 154.5 268.57C144.835 268.57 137 275.419 137 283.868C137 292.317 144.835 299.167 154.5 299.167Z" fill="#6ADEDC"/>
<path d="M108.5 377.358C118.165 377.358 126 370.889 126 362.91C126 354.93 118.165 348.461 108.5 348.461C98.835 348.461 91 354.93 91 362.91C91 370.889 98.835 377.358 108.5 377.358Z" fill="#6ADEDC"/>
<path d="M389 180.18C398.389 180.18 406 173.711 406 165.732C406 157.752 398.389 151.283 389 151.283C379.611 151.283 372 157.752 372 165.732C372 173.711 379.611 180.18 389 180.18Z" fill="#6ADEDC"/>
<path d="M108 613.632C117.389 613.632 125 607.163 125 599.183C125 591.204 117.389 584.735 108 584.735C98.6112 584.735 91 591.204 91 599.183C91 607.163 98.6112 613.632 108 613.632Z" fill="#6ADEDC"/>
<path d="M436 180.18C445.389 180.18 453 173.711 453 165.732C453 157.752 445.389 151.283 436 151.283C426.611 151.283 419 157.752 419 165.732C419 173.711 426.611 180.18 436 180.18Z" fill="#6ADEDC"/>
<path d="M342.5 180.18C352.165 180.18 360 173.711 360 165.732C360 157.752 352.165 151.283 342.5 151.283C332.835 151.283 325 157.752 325 165.732C325 173.711 332.835 180.18 342.5 180.18Z" fill="#6ADEDC"/>
<path d="M670.5 338.263C679.613 338.263 687 331.794 687 323.814C687 315.834 679.613 309.366 670.5 309.366C661.387 309.366 654 315.834 654 323.814C654 331.794 661.387 338.263 670.5 338.263Z" fill="#6ADEDC"/>
<path d="M482.5 180.18C491.613 180.18 499 173.711 499 165.732C499 157.752 491.613 151.283 482.5 151.283C473.387 151.283 466 157.752 466 165.732C466 173.711 473.387 180.18 482.5 180.18Z" fill="#6ADEDC"/>
<path d="M108.5 336.563C117.613 336.563 125 330.474 125 322.964C125 315.454 117.613 309.366 108.5 309.366C99.3873 309.366 92 315.454 92 322.964C92 330.474 99.3873 336.563 108.5 336.563Z" fill="#6ADEDC"/>
<path d="M295.5 180.18C304.613 180.18 312 173.711 312 165.732C312 157.752 304.613 151.283 295.5 151.283C286.387 151.283 279 157.752 279 165.732C279 173.711 286.387 180.18 295.5 180.18Z" fill="#6ADEDC"/>
<path d="M623.5 258.371C632.613 258.371 640 251.903 640 243.923C640 235.943 632.613 229.475 623.5 229.475C614.387 229.475 607 235.943 607 243.923C607 251.903 614.387 258.371 623.5 258.371Z" fill="#6ADEDC"/>
<path d="M576.5 219.276C585.613 219.276 593 213.187 593 205.677C593 198.167 585.613 192.079 576.5 192.079C567.387 192.079 560 198.167 560 205.677C560 213.187 567.387 219.276 576.5 219.276Z" fill="#6ADEDC"/>
<path d="M716.5 494.645C725.613 494.645 733 488.557 733 481.047C733 473.536 725.613 467.448 716.5 467.448C707.387 467.448 700 473.536 700 481.047C700 488.557 707.387 494.645 716.5 494.645Z" fill="#6ADEDC"/>
<path d="M61 494.645C69.8365 494.645 77 488.557 77 481.047C77 473.536 69.8365 467.448 61 467.448C52.1634 467.448 45 473.536 45 481.047C45 488.557 52.1634 494.645 61 494.645Z" fill="#6ADEDC"/>
<path d="M201.5 219.276C210.613 219.276 218 213.187 218 205.677C218 198.167 210.613 192.079 201.5 192.079C192.387 192.079 185 198.167 185 205.677C185 213.187 192.387 219.276 201.5 219.276Z" fill="#6ADEDC"/>
<path d="M717 533.741C725.837 533.741 733 527.652 733 520.142C733 512.632 725.837 506.544 717 506.544C708.163 506.544 701 512.632 701 520.142C701 527.652 708.163 533.741 717 533.741Z" fill="#6ADEDC"/>
<path d="M717 455.549C725.837 455.549 733 449.081 733 441.101C733 433.121 725.837 426.653 717 426.653C708.163 426.653 701 433.121 701 441.101C701 449.081 708.163 455.549 717 455.549Z" fill="#6ADEDC"/>
<path d="M154.5 258.371C163.613 258.371 171 252.283 171 244.773C171 237.263 163.613 231.174 154.5 231.174C145.387 231.174 138 237.263 138 244.773C138 252.283 145.387 258.371 154.5 258.371Z" fill="#6ADEDC"/>
<path d="M61 533.741C69.8366 533.741 77 527.652 77 520.142C77 512.632 69.8366 506.544 61 506.544C52.1634 506.544 45 512.632 45 520.142C45 527.652 52.1634 533.741 61 533.741Z" fill="#6ADEDC"/>
<path d="M61 455.549C69.8366 455.549 77 449.461 77 441.951C77 434.441 69.8366 428.352 61 428.352C52.1634 428.352 45 434.441 45 441.951C45 449.461 52.1634 455.549 61 455.549Z" fill="#6ADEDC"/>
<path d="M717 416.454C725.837 416.454 733 410.366 733 402.855C733 395.345 725.837 389.257 717 389.257C708.163 389.257 701 395.345 701 402.855C701 410.366 708.163 416.454 717 416.454Z" fill="#6ADEDC"/>
<path d="M717 572.836C725.837 572.836 733 566.748 733 559.238C733 551.728 725.837 545.639 717 545.639C708.163 545.639 701 551.728 701 559.238C701 566.748 708.163 572.836 717 572.836Z" fill="#6ADEDC"/>
<path d="M530 178.48C538.837 178.48 546 172.392 546 164.882C546 157.371 538.837 151.283 530 151.283C521.163 151.283 514 157.371 514 164.882C514 172.392 521.163 178.48 530 178.48Z" fill="#6ADEDC"/>
<path d="M249 178.48C257.837 178.48 265 172.392 265 164.882C265 157.371 257.837 151.283 249 151.283C240.163 151.283 233 157.371 233 164.882C233 172.392 240.163 178.48 249 178.48Z" fill="#6ADEDC"/>
<path d="M670.5 297.467C679.613 297.467 687 291.379 687 283.869C687 276.358 679.613 270.27 670.5 270.27C661.387 270.27 654 276.358 654 283.869C654 291.379 661.387 297.467 670.5 297.467Z" fill="#6ADEDC"/>
<path d="M61 416.454C69.8365 416.454 77 410.366 77 402.855C77 395.345 69.8365 389.257 61 389.257C52.1634 389.257 45 395.345 45 402.855C45 410.366 52.1634 416.454 61 416.454Z" fill="#6ADEDC"/>
<path d="M61 572.836C69.8366 572.836 77 566.748 77 559.238C77 551.728 69.8366 545.639 61 545.639C52.1634 545.639 45 551.728 45 559.238C45 566.748 52.1634 572.836 61 572.836Z" fill="#6ADEDC"/>
<path d="M108 297.467C116.837 297.467 124 291.379 124 283.869C124 276.358 116.837 270.27 108 270.27C99.1634 270.27 92 276.358 92 283.869C92 291.379 99.1634 297.467 108 297.467Z" fill="#6ADEDC"/>
<path d="M389 139.385C397.837 139.385 405 133.677 405 126.636C405 119.595 397.837 113.887 389 113.887C380.163 113.887 373 119.595 373 126.636C373 133.677 380.163 139.385 389 139.385Z" fill="#6ADEDC"/>
<path d="M717 375.658C725.837 375.658 733 369.57 733 362.06C733 354.55 725.837 348.461 717 348.461C708.163 348.461 701 354.55 701 362.06C701 369.57 708.163 375.658 717 375.658Z" fill="#6ADEDC"/>
<path d="M342.5 139.385C351.06 139.385 358 133.677 358 126.636C358 119.595 351.06 113.887 342.5 113.887C333.94 113.887 327 119.595 327 126.636C327 133.677 333.94 139.385 342.5 139.385Z" fill="#6ADEDC"/>
<path d="M436 139.385C444.837 139.385 452 133.677 452 126.636C452 119.595 444.837 113.887 436 113.887C427.163 113.887 420 119.595 420 126.636C420 133.677 427.163 139.385 436 139.385Z" fill="#6ADEDC"/>
<path d="M61 375.658C69.8366 375.658 77 369.951 77 362.91C77 355.869 69.8366 350.161 61 350.161C52.1634 350.161 45 355.869 45 362.91C45 369.951 52.1634 375.658 61 375.658Z" fill="#6ADEDC"/>
<path d="M623.5 217.576C632.06 217.576 639 211.868 639 204.827C639 197.786 632.06 192.079 623.5 192.079C614.94 192.079 608 197.786 608 204.827C608 211.868 614.94 217.576 623.5 217.576Z" fill="#6ADEDC"/>
<path d="M295.5 139.385C304.06 139.385 311 133.677 311 126.636C311 119.595 304.06 113.887 295.5 113.887C286.94 113.887 280 119.595 280 126.636C280 133.677 286.94 139.385 295.5 139.385Z" fill="#6ADEDC"/>
<path d="M482.5 139.385C491.06 139.385 498 133.677 498 126.636C498 119.595 491.06 113.887 482.5 113.887C473.94 113.887 467 119.595 467 126.636C467 133.677 473.94 139.385 482.5 139.385Z" fill="#6ADEDC"/>
<path d="M154.5 217.576C163.06 217.576 170 211.868 170 204.827C170 197.786 163.06 192.079 154.5 192.079C145.94 192.079 139 197.786 139 204.827C139 211.868 145.94 217.576 154.5 217.576Z" fill="#6ADEDC"/>
<path d="M717 336.563C725.284 336.563 732 330.855 732 323.814C732 316.773 725.284 311.065 717 311.065C708.716 311.065 702 316.773 702 323.814C702 330.855 708.716 336.563 717 336.563Z" fill="#6ADEDC"/>
<path d="M670.5 256.671C679.06 256.671 686 250.964 686 243.923C686 236.882 679.06 231.174 670.5 231.174C661.94 231.174 655 236.882 655 243.923C655 250.964 661.94 256.671 670.5 256.671Z" fill="#6ADEDC"/>
<path d="M202 178.48C210.284 178.48 217 172.772 217 165.732C217 158.691 210.284 152.983 202 152.983C193.716 152.983 187 158.691 187 165.732C187 172.772 193.716 178.48 202 178.48Z" fill="#6ADEDC"/>
<path d="M577 178.48C585.284 178.48 592 172.772 592 165.732C592 158.691 585.284 152.983 577 152.983C568.716 152.983 562 158.691 562 165.732C562 172.772 568.716 178.48 577 178.48Z" fill="#6ADEDC"/>
<path d="M108 256.671C116.284 256.671 123 250.964 123 243.923C123 236.882 116.284 231.174 108 231.174C99.7157 231.174 93 236.882 93 243.923C93 250.964 99.7157 256.671 108 256.671Z" fill="#6ADEDC"/>
<path d="M61 334.863C69.2843 334.863 76 329.536 76 322.964C76 316.393 69.2843 311.065 61 311.065C52.7157 311.065 46 316.393 46 322.964C46 329.536 52.7157 334.863 61 334.863Z" fill="#6ADEDC"/>
<path d="M764.5 492.945C772.508 492.945 779 487.618 779 481.047C779 474.475 772.508 469.148 764.5 469.148C756.492 469.148 750 474.475 750 481.047C750 487.618 756.492 492.945 764.5 492.945Z" fill="#6ADEDC"/>
<path d="M249 139.385C257.284 139.385 264 133.677 264 126.636C264 119.595 257.284 113.887 249 113.887C240.716 113.887 234 119.595 234 126.636C234 133.677 240.716 139.385 249 139.385Z" fill="#6ADEDC"/>
<path d="M529.5 139.385C537.508 139.385 544 133.677 544 126.636C544 119.595 537.508 113.887 529.5 113.887C521.492 113.887 515 119.595 515 126.636C515 133.677 521.492 139.385 529.5 139.385Z" fill="#6ADEDC"/>
<path d="M764.5 532.041C772.508 532.041 779 526.714 779 520.142C779 513.571 772.508 508.244 764.5 508.244C756.492 508.244 750 513.571 750 520.142C750 526.714 756.492 532.041 764.5 532.041Z" fill="#6ADEDC"/>
<path d="M764.5 453.85C772.508 453.85 779 448.142 779 441.101C779 434.06 772.508 428.352 764.5 428.352C756.492 428.352 750 434.06 750 441.101C750 448.142 756.492 453.85 764.5 453.85Z" fill="#6ADEDC"/>
<path d="M716.5 295.767C724.508 295.767 731 290.44 731 283.869C731 277.297 724.508 271.97 716.5 271.97C708.492 271.97 702 277.297 702 283.869C702 290.44 708.492 295.767 716.5 295.767Z" fill="#6ADEDC"/>
<path d="M14.5 492.945C22.5081 492.945 29 487.618 29 481.047C29 474.475 22.5081 469.148 14.5 469.148C6.49187 469.148 0 474.475 0 481.047C0 487.618 6.49187 492.945 14.5 492.945Z" fill="#6ADEDC"/>
<path d="M14.5 532.041C22.5081 532.041 29 526.714 29 520.142C29 513.571 22.5081 508.244 14.5 508.244C6.49188 508.244 0 513.571 0 520.142C0 526.714 6.49188 532.041 14.5 532.041Z" fill="#6ADEDC"/>
<path d="M14.5 453.85C22.5081 453.85 29 448.522 29 441.951C29 435.379 22.5081 430.052 14.5 430.052C6.49188 430.052 0 435.379 0 441.951C0 448.522 6.49188 453.85 14.5 453.85Z" fill="#6ADEDC"/>
<path d="M61 295.767C68.732 295.767 75 290.44 75 283.869C75 277.297 68.732 271.97 61 271.97C53.268 271.97 47 277.297 47 283.869C47 290.44 53.268 295.767 61 295.767Z" fill="#6ADEDC"/>
<path d="M764 571.137C771.732 571.137 778 565.809 778 559.238C778 552.666 771.732 547.339 764 547.339C756.268 547.339 750 552.666 750 559.238C750 565.809 756.268 571.137 764 571.137Z" fill="#6ADEDC"/>
<path d="M764 414.754C771.732 414.754 778 409.427 778 402.855C778 396.284 771.732 390.957 764 390.957C756.268 390.957 750 396.284 750 402.855C750 409.427 756.268 414.754 764 414.754Z" fill="#6ADEDC"/>
<path d="M15 414.754C22.732 414.754 29 409.427 29 402.855C29 396.284 22.732 390.957 15 390.957C7.26801 390.957 1 396.284 1 402.855C1 409.427 7.26801 414.754 15 414.754Z" fill="#6ADEDC"/>
<path d="M389 98.5891C396.732 98.5891 403 93.2619 403 86.6904C403 80.119 396.732 74.7917 389 74.7917C381.268 74.7917 375 80.119 375 86.6904C375 93.2619 381.268 98.5891 389 98.5891Z" fill="#6ADEDC"/>
<path d="M15 571.137C22.732 571.137 29 565.809 29 559.238C29 552.666 22.732 547.339 15 547.339C7.26801 547.339 1 552.666 1 559.238C1 565.809 7.26801 571.137 15 571.137Z" fill="#6ADEDC"/>
<path d="M623 176.78C630.732 176.78 637 171.453 637 164.882C637 158.31 630.732 152.983 623 152.983C615.268 152.983 609 158.31 609 164.882C609 171.453 615.268 176.78 623 176.78Z" fill="#6ADEDC"/>
<path d="M436 98.5891C443.732 98.5891 450 93.2619 450 86.6904C450 80.119 443.732 74.7917 436 74.7917C428.268 74.7917 422 80.119 422 86.6904C422 93.2619 428.268 98.5891 436 98.5891Z" fill="#6ADEDC"/>
<path d="M343 98.5891C350.732 98.5891 357 93.2619 357 86.6904C357 80.119 350.732 74.7917 343 74.7917C335.268 74.7917 329 80.119 329 86.6904C329 93.2619 335.268 98.5891 343 98.5891Z" fill="#6ADEDC"/>
<path d="M155 176.78C162.732 176.78 169 171.453 169 164.882C169 158.31 162.732 152.983 155 152.983C147.268 152.983 141 158.31 141 164.882C141 171.453 147.268 176.78 155 176.78Z" fill="#6ADEDC"/>
<path d="M670.5 217.576C677.956 217.576 684 212.249 684 205.677C684 199.106 677.956 193.779 670.5 193.779C663.044 193.779 657 199.106 657 205.677C657 212.249 663.044 217.576 670.5 217.576Z" fill="#6ADEDC"/>
<path d="M108 217.576C115.732 217.576 122 212.249 122 205.677C122 199.106 115.732 193.779 108 193.779C100.268 193.779 94 199.106 94 205.677C94 212.249 100.268 217.576 108 217.576Z" fill="#6ADEDC"/>
<path d="M764 373.958C771.732 373.958 778 368.631 778 362.06C778 355.488 771.732 350.161 764 350.161C756.268 350.161 750 355.488 750 362.06C750 368.631 756.268 373.958 764 373.958Z" fill="#6ADEDC"/>
<path d="M577 137.685C584.732 137.685 591 132.738 591 126.636C591 120.534 584.732 115.587 577 115.587C569.268 115.587 563 120.534 563 126.636C563 132.738 569.268 137.685 577 137.685Z" fill="#6ADEDC"/>
<path d="M482.5 98.5891C489.956 98.5891 496 93.2619 496 86.6904C496 80.119 489.956 74.7917 482.5 74.7917C475.044 74.7917 469 80.119 469 86.6904C469 93.2619 475.044 98.5891 482.5 98.5891Z" fill="#6ADEDC"/>
<path d="M14.5 373.959C21.9558 373.959 28 369.012 28 362.91C28 356.808 21.9558 351.861 14.5 351.861C7.04416 351.861 1 356.808 1 362.91C1 369.012 7.04416 373.959 14.5 373.959Z" fill="#6ADEDC"/>
<path d="M201.5 137.685C208.956 137.685 215 132.738 215 126.636C215 120.534 208.956 115.587 201.5 115.587C194.044 115.587 188 120.534 188 126.636C188 132.738 194.044 137.685 201.5 137.685Z" fill="#6ADEDC"/>
<path d="M295.5 98.5891C302.956 98.5891 309 93.2619 309 86.6904C309 80.119 302.956 74.7917 295.5 74.7917C288.044 74.7917 282 80.119 282 86.6904C282 93.2619 288.044 98.5891 295.5 98.5891Z" fill="#6ADEDC"/>
<path d="M716.5 254.972C723.956 254.972 730 250.025 730 243.923C730 237.821 723.956 232.874 716.5 232.874C709.044 232.874 703 237.821 703 243.923C703 250.025 709.044 254.972 716.5 254.972Z" fill="#6ADEDC"/>
<path d="M764 334.863C771.18 334.863 777 329.916 777 323.814C777 317.712 771.18 312.765 764 312.765C756.82 312.765 751 317.712 751 323.814C751 329.916 756.82 334.863 764 334.863Z" fill="#6ADEDC"/>
<path d="M61 254.972C68.1797 254.972 74 250.025 74 243.923C74 237.821 68.1797 232.874 61 232.874C53.8203 232.874 48 237.821 48 243.923C48 250.025 53.8203 254.972 61 254.972Z" fill="#6ADEDC"/>
<path d="M15 333.163C22.1797 333.163 28 328.216 28 322.114C28 316.012 22.1797 311.065 15 311.065C7.8203 311.065 2 316.012 2 322.114C2 328.216 7.8203 333.163 15 333.163Z" fill="#6ADEDC"/>
<path d="M530 98.5891C537.18 98.5891 543 93.6424 543 87.5403C543 81.4383 537.18 76.4916 530 76.4916C522.82 76.4916 517 81.4383 517 87.5403C517 93.6424 522.82 98.5891 530 98.5891Z" fill="#6ADEDC"/>
<path d="M249 96.8893C256.18 96.8893 262 92.3231 262 86.6904C262 81.0578 256.18 76.4916 249 76.4916C241.82 76.4916 236 81.0578 236 86.6904C236 92.3231 241.82 96.8893 249 96.8893Z" fill="#6ADEDC"/>
<path d="M670.5 176.78C677.404 176.78 683 171.834 683 165.732C683 159.63 677.404 154.683 670.5 154.683C663.596 154.683 658 159.63 658 165.732C658 171.834 663.596 176.78 670.5 176.78Z" fill="#6ADEDC"/>
<path d="M623.5 137.685C630.404 137.685 636 132.738 636 126.636C636 120.534 630.404 115.587 623.5 115.587C616.596 115.587 611 120.534 611 126.636C611 132.738 616.596 137.685 623.5 137.685Z" fill="#6ADEDC"/>
<path d="M154.5 137.685C161.404 137.685 167 132.738 167 126.636C167 120.534 161.404 115.587 154.5 115.587C147.596 115.587 142 120.534 142 126.636C142 132.738 147.596 137.685 154.5 137.685Z" fill="#6ADEDC"/>
<path d="M108.5 176.78C115.404 176.78 121 171.834 121 165.732C121 159.63 115.404 154.683 108.5 154.683C101.596 154.683 96 159.63 96 165.732C96 171.834 101.596 176.78 108.5 176.78Z" fill="#6ADEDC"/>
<path d="M764.5 294.067C771.404 294.067 777 289.501 777 283.869C777 278.236 771.404 273.67 764.5 273.67C757.596 273.67 752 278.236 752 283.869C752 289.501 757.596 294.067 764.5 294.067Z" fill="#6ADEDC"/>
<path d="M810.5 491.245C817.404 491.245 823 486.679 823 481.047C823 475.414 817.404 470.848 810.5 470.848C803.596 470.848 798 475.414 798 481.047C798 486.679 803.596 491.245 810.5 491.245Z" fill="#6ADEDC"/>
<path d="M810.5 452.15C817.404 452.15 823 447.203 823 441.101C823 434.999 817.404 430.052 810.5 430.052C803.596 430.052 798 434.999 798 441.101C798 447.203 803.596 452.15 810.5 452.15Z" fill="#6ADEDC"/>
<path d="M810.5 530.341C817.404 530.341 823 525.775 823 520.142C823 514.51 817.404 509.943 810.5 509.943C803.596 509.943 798 514.51 798 520.142C798 525.775 803.596 530.341 810.5 530.341Z" fill="#6ADEDC"/>
<path d="M14.5 294.067C21.4036 294.067 27 289.501 27 283.869C27 278.236 21.4036 273.67 14.5 273.67C7.59644 273.67 2 278.236 2 283.869C2 289.501 7.59644 294.067 14.5 294.067Z" fill="#6ADEDC"/>
<path d="M717 215.876C723.627 215.876 729 211.31 729 205.677C729 200.045 723.627 195.478 717 195.478C710.373 195.478 705 200.045 705 205.677C705 211.31 710.373 215.876 717 215.876Z" fill="#6ADEDC"/>
<path d="M389 57.7937C395.627 57.7937 401 53.2275 401 47.5949C401 41.9622 395.627 37.396 389 37.396C382.373 37.396 377 41.9622 377 47.5949C377 53.2275 382.373 57.7937 389 57.7937Z" fill="#6ADEDC"/>
<path d="M61 215.876C67.6274 215.876 73 211.31 73 205.677C73 200.045 67.6274 195.478 61 195.478C54.3726 195.478 49 200.045 49 205.677C49 211.31 54.3726 215.876 61 215.876Z" fill="#6ADEDC"/>
<path d="M342.5 57.7937C349.404 57.7937 355 53.2275 355 47.5949C355 41.9622 349.404 37.396 342.5 37.396C335.596 37.396 330 41.9622 330 47.5949C330 53.2275 335.596 57.7937 342.5 57.7937Z" fill="#6ADEDC"/>
<path d="M436 57.7937C442.627 57.7937 448 53.2275 448 47.5949C448 41.9622 442.627 37.396 436 37.396C429.373 37.396 424 41.9622 424 47.5949C424 53.2275 429.373 57.7937 436 57.7937Z" fill="#6ADEDC"/>
<path d="M202 96.8893C208.627 96.8893 214 92.3231 214 86.6904C214 81.0578 208.627 76.4916 202 76.4916C195.373 76.4916 190 81.0578 190 86.6904C190 92.3231 195.373 96.8893 202 96.8893Z" fill="#6ADEDC"/>
<path d="M810 569.437C816.627 569.437 822 564.871 822 559.238C822 553.605 816.627 549.039 810 549.039C803.373 549.039 798 553.605 798 559.238C798 564.871 803.373 569.437 810 569.437Z" fill="#6ADEDC"/>
<path d="M577 96.8893C583.627 96.8893 589 92.3231 589 86.6904C589 81.0578 583.627 76.4916 577 76.4916C570.373 76.4916 565 81.0578 565 86.6904C565 92.3231 570.373 96.8893 577 96.8893Z" fill="#6ADEDC"/>
<path d="M810 413.054C816.627 413.054 822 408.488 822 402.855C822 397.223 816.627 392.656 810 392.656C803.373 392.656 798 397.223 798 402.855C798 408.488 803.373 413.054 810 413.054Z" fill="#6ADEDC"/>
<path d="M482.5 57.7937C488.851 57.7937 494 53.2275 494 47.5949C494 41.9622 488.851 37.396 482.5 37.396C476.149 37.396 471 41.9622 471 47.5949C471 53.2275 476.149 57.7937 482.5 57.7937Z" fill="#6ADEDC"/>
<path d="M295.5 57.7937C301.851 57.7937 307 53.2275 307 47.5949C307 41.9622 301.851 37.396 295.5 37.396C289.149 37.396 284 41.9622 284 47.5949C284 53.2275 289.149 57.7937 295.5 57.7937Z" fill="#6ADEDC"/>
<path d="M810.5 372.259C816.851 372.259 822 368.073 822 362.91C822 357.746 816.851 353.561 810.5 353.561C804.149 353.561 799 357.746 799 362.91C799 368.073 804.149 372.259 810.5 372.259Z" fill="#6ADEDC"/>
<path d="M764.5 253.272C770.851 253.272 776 249.086 776 243.923C776 238.76 770.851 234.574 764.5 234.574C758.149 234.574 753 238.76 753 243.923C753 249.086 758.149 253.272 764.5 253.272Z" fill="#6ADEDC"/>
<path d="M14.5 253.272C20.8513 253.272 26 249.086 26 243.923C26 238.76 20.8513 234.574 14.5 234.574C8.14872 234.574 3 238.76 3 243.923C3 249.086 8.14872 253.272 14.5 253.272Z" fill="#6ADEDC"/>
<path d="M249 57.7936C255.075 57.7936 260 53.608 260 48.4447C260 43.2814 255.075 39.0957 249 39.0957C242.925 39.0957 238 43.2814 238 48.4447C238 53.608 242.925 57.7936 249 57.7936Z" fill="#6ADEDC"/>
<path d="M530 57.7936C536.075 57.7936 541 53.608 541 48.4447C541 43.2814 536.075 39.0957 530 39.0957C523.925 39.0957 519 43.2814 519 48.4447C519 53.608 523.925 57.7936 530 57.7936Z" fill="#6ADEDC"/>
<path d="M670.5 135.985C676.851 135.985 682 131.799 682 126.636C682 121.473 676.851 117.287 670.5 117.287C664.149 117.287 659 121.473 659 126.636C659 131.799 664.149 135.985 670.5 135.985Z" fill="#6ADEDC"/>
<path d="M717 175.081C723.075 175.081 728 170.895 728 165.732C728 160.568 723.075 156.383 717 156.383C710.925 156.383 706 160.568 706 165.732C706 170.895 710.925 175.081 717 175.081Z" fill="#6ADEDC"/>
<path d="M108 135.985C114.075 135.985 119 131.799 119 126.636C119 121.473 114.075 117.287 108 117.287C101.925 117.287 97 121.473 97 126.636C97 131.799 101.925 135.985 108 135.985Z" fill="#6ADEDC"/>
<path d="M810.5 333.163C816.299 333.163 821 328.977 821 323.814C821 318.651 816.299 314.465 810.5 314.465C804.701 314.465 800 318.651 800 323.814C800 328.977 804.701 333.163 810.5 333.163Z" fill="#6ADEDC"/>
<path d="M623 95.1895C629.075 95.1895 634 91.3844 634 86.6905C634 81.9966 629.075 78.1914 623 78.1914C616.925 78.1914 612 81.9966 612 86.6905C612 91.3844 616.925 95.1895 623 95.1895Z" fill="#6ADEDC"/>
<path d="M154.5 95.1895C160.299 95.1895 165 91.3844 165 86.6905C165 81.9966 160.299 78.1914 154.5 78.1914C148.701 78.1914 144 81.9966 144 86.6905C144 91.3844 148.701 95.1895 154.5 95.1895Z" fill="#6ADEDC"/>
<path d="M61 175.081C67.0751 175.081 72 170.895 72 165.732C72 160.568 67.0751 156.383 61 156.383C54.9249 156.383 50 160.568 50 165.732C50 170.895 54.9249 175.081 61 175.081Z" fill="#6ADEDC"/>
<path d="M577 56.0938C582.523 56.0938 587 52.2887 587 47.5948C587 42.9009 582.523 39.0957 577 39.0957C571.477 39.0957 567 42.9009 567 47.5948C567 52.2887 571.477 56.0938 577 56.0938Z" fill="#6ADEDC"/>
<path d="M764 214.176C769.523 214.176 774 210.371 774 205.677C774 200.983 769.523 197.178 764 197.178C758.477 197.178 754 200.983 754 205.677C754 210.371 758.477 214.176 764 214.176Z" fill="#6ADEDC"/>
<path d="M436 16.9981C441.523 16.9981 446 13.193 446 8.49905C446 3.80516 441.523 0 436 0C430.477 0 426 3.80516 426 8.49905C426 13.193 430.477 16.9981 436 16.9981Z" fill="#6ADEDC"/>
<path d="M389 16.9981C394.523 16.9981 399 13.193 399 8.49905C399 3.80516 394.523 0 389 0C383.477 0 379 3.80516 379 8.49905C379 13.193 383.477 16.9981 389 16.9981Z" fill="#6ADEDC"/>
<path d="M15 214.176C20.5228 214.176 25 210.371 25 205.677C25 200.983 20.5228 197.178 15 197.178C9.47715 197.178 5 200.983 5 205.677C5 210.371 9.47715 214.176 15 214.176Z" fill="#6ADEDC"/>
<path d="M810.5 292.368C816.299 292.368 821 288.562 821 283.869C821 279.175 816.299 275.37 810.5 275.37C804.701 275.37 800 279.175 800 283.869C800 288.562 804.701 292.368 810.5 292.368Z" fill="#6ADEDC"/>
<path d="M202 56.0938C207.523 56.0938 212 52.2886 212 47.5948C212 42.9009 207.523 39.0957 202 39.0957C196.477 39.0957 192 42.9009 192 47.5948C192 52.2886 196.477 56.0938 202 56.0938Z" fill="#6ADEDC"/>
<path d="M342.5 16.9981C347.747 16.9981 352 13.193 352 8.49906C352 3.80516 347.747 0 342.5 0C337.253 0 333 3.80516 333 8.49906C333 13.193 337.253 16.9981 342.5 16.9981Z" fill="#6ADEDC"/>
<path d="M857.5 489.546C862.747 489.546 867 485.74 867 481.047C867 476.353 862.747 472.547 857.5 472.547C852.253 472.547 848 476.353 848 481.047C848 485.74 852.253 489.546 857.5 489.546Z" fill="#6ADEDC"/>
<path d="M857.5 528.641C862.747 528.641 867 524.836 867 520.142C867 515.448 862.747 511.643 857.5 511.643C852.253 511.643 848 515.448 848 520.142C848 524.836 852.253 528.641 857.5 528.641Z" fill="#6ADEDC"/>
<path d="M857.5 448.75C862.747 448.75 867 445.326 867 441.101C867 436.877 862.747 433.452 857.5 433.452C852.253 433.452 848 436.877 848 441.101C848 445.326 852.253 448.75 857.5 448.75Z" fill="#6ADEDC"/>
<path d="M483.5 15.2983C488.747 15.2983 493 11.8737 493 7.64915C493 3.42464 488.747 0 483.5 0C478.253 0 474 3.42464 474 7.64915C474 11.8737 478.253 15.2983 483.5 15.2983Z" fill="#6ADEDC"/>
<path d="M295.5 15.2983C300.747 15.2983 305 11.8737 305 7.64915C305 3.42464 300.747 0 295.5 0C290.253 0 286 3.42464 286 7.64915C286 11.8737 290.253 15.2983 295.5 15.2983Z" fill="#6ADEDC"/>
<path d="M857.5 409.655C862.747 409.655 867 406.23 867 402.005C867 397.781 862.747 394.356 857.5 394.356C852.253 394.356 848 397.781 848 402.005C848 406.23 852.253 409.655 857.5 409.655Z" fill="#6ADEDC"/>
<path d="M670.5 95.1895C675.747 95.1895 680 91.3844 680 86.6905C680 81.9966 675.747 78.1914 670.5 78.1914C665.253 78.1914 661 81.9966 661 86.6905C661 91.3844 665.253 95.1895 670.5 95.1895Z" fill="#6ADEDC"/>
<path d="M717 134.285C721.971 134.285 726 130.86 726 126.636C726 122.411 721.971 118.987 717 118.987C712.029 118.987 708 122.411 708 126.636C708 130.86 712.029 134.285 717 134.285Z" fill="#6ADEDC"/>
<path d="M857.5 567.737C862.747 567.737 867 564.312 867 560.088C867 555.863 862.747 552.439 857.5 552.439C852.253 552.439 848 555.863 848 560.088C848 564.312 852.253 567.737 857.5 567.737Z" fill="#6ADEDC"/>
<path d="M108 95.1895C112.971 95.1895 117 91.7649 117 87.5404C117 83.3159 112.971 79.8912 108 79.8912C103.029 79.8912 99 83.3159 99 87.5404C99 91.7649 103.029 95.1895 108 95.1895Z" fill="#6ADEDC"/>
<path d="M810.5 253.272C815.747 253.272 820 249.847 820 245.623C820 241.398 815.747 237.974 810.5 237.974C805.253 237.974 801 241.398 801 245.623C801 249.847 805.253 253.272 810.5 253.272Z" fill="#6ADEDC"/>
<path d="M61 134.285C65.9706 134.285 70 130.86 70 126.636C70 122.411 65.9706 118.987 61 118.987C56.0294 118.987 52 122.411 52 126.636C52 130.86 56.0294 134.285 61 134.285Z" fill="#6ADEDC"/>
<path d="M858 370.559C862.971 370.559 867 367.134 867 362.91C867 358.685 862.971 355.261 858 355.261C853.029 355.261 849 358.685 849 362.91C849 367.134 853.029 370.559 858 370.559Z" fill="#6ADEDC"/>
<path d="M623.5 54.394C628.194 54.394 632 51.3499 632 47.5948C632 43.8397 628.194 40.7955 623.5 40.7955C618.806 40.7955 615 43.8397 615 47.5948C615 51.3499 618.806 54.394 623.5 54.394Z" fill="#6ADEDC"/>
<path d="M529.5 15.2983C534.194 15.2983 538 11.8737 538 7.64915C538 3.42464 534.194 0 529.5 0C524.806 0 521 3.42464 521 7.64915C521 11.8737 524.806 15.2983 529.5 15.2983Z" fill="#6ADEDC"/>
<path d="M249 15.2983C253.971 15.2983 258 11.8737 258 7.64915C258 3.42464 253.971 0 249 0C244.029 0 240 3.42464 240 7.64915C240 11.8737 244.029 15.2983 249 15.2983Z" fill="#6ADEDC"/>
<path d="M155.5 54.394C160.194 54.394 164 50.9694 164 46.7448C164 42.5203 160.194 39.0957 155.5 39.0957C150.806 39.0957 147 42.5203 147 46.7448C147 50.9694 150.806 54.394 155.5 54.394Z" fill="#6ADEDC"/>
<path d="M764.5 173.381C769.194 173.381 773 169.956 773 165.732C773 161.507 769.194 158.083 764.5 158.083C759.806 158.083 756 161.507 756 165.732C756 169.956 759.806 173.381 764.5 173.381Z" fill="#6ADEDC"/>
<path d="M14.5 173.381C19.1944 173.381 23 169.956 23 165.732C23 161.507 19.1944 158.083 14.5 158.083C9.80558 158.083 6 161.507 6 165.732C6 169.956 9.80558 173.381 14.5 173.381Z" fill="#6ADEDC"/>
<path d="M858 329.763C862.418 329.763 866 326.719 866 322.964C866 319.209 862.418 316.165 858 316.165C853.582 316.165 850 319.209 850 322.964C850 326.719 853.582 329.763 858 329.763Z" fill="#6ADEDC"/>
<path d="M810.5 210.777C814.642 210.777 818 208.113 818 204.827C818 201.542 814.642 198.878 810.5 198.878C806.358 198.878 803 201.542 803 204.827C803 208.113 806.358 210.777 810.5 210.777Z" fill="#6ADEDC"/>
<path d="M576.5 13.5985C580.642 13.5985 584 10.9349 584 7.64917C584 4.36344 580.642 1.69983 576.5 1.69983C572.358 1.69983 569 4.36344 569 7.64917C569 10.9349 572.358 13.5985 576.5 13.5985Z" fill="#6ADEDC"/>
<path d="M201.5 13.5985C205.642 13.5985 209 10.9349 209 7.64917C209 4.36344 205.642 1.69983 201.5 1.69983C197.358 1.69983 194 4.36344 194 7.64917C194 10.9349 197.358 13.5985 201.5 13.5985Z" fill="#6ADEDC"/>
<path d="M717 91.7899C720.866 91.7899 724 89.5068 724 86.6905C724 83.8742 720.866 81.5911 717 81.5911C713.134 81.5911 710 83.8742 710 86.6905C710 89.5068 713.134 91.7899 717 91.7899Z" fill="#6ADEDC"/>
<path d="M858 288.968C861.866 288.968 865 286.685 865 283.868C865 281.052 861.866 278.769 858 278.769C854.134 278.769 851 281.052 851 283.868C851 286.685 854.134 288.968 858 288.968Z" fill="#6ADEDC"/>
<path d="M764 132.585C767.866 132.585 771 129.922 771 126.636C771 123.35 767.866 120.687 764 120.687C760.134 120.687 757 123.35 757 126.636C757 129.922 760.134 132.585 764 132.585Z" fill="#6ADEDC"/>
<path d="M61 91.7899C64.866 91.7899 68 89.5068 68 86.6905C68 83.8742 64.866 81.5911 61 81.5911C57.134 81.5911 54 83.8742 54 86.6905C54 89.5068 57.134 91.7899 61 91.7899Z" fill="#6ADEDC"/>
<path d="M670.5 52.6942C674.09 52.6942 677 50.4111 677 47.5948C677 44.7785 674.09 42.4954 670.5 42.4954C666.91 42.4954 664 44.7785 664 47.5948C664 50.4111 666.91 52.6942 670.5 52.6942Z" fill="#6ADEDC"/>
<path d="M108 52.6942C111.866 52.6942 115 50.0306 115 46.7449C115 43.4591 111.866 40.7955 108 40.7955C104.134 40.7955 101 43.4591 101 46.7449C101 50.0306 104.134 52.6942 108 52.6942Z" fill="#6ADEDC"/>
<path d="M14.5 132.585C18.0899 132.585 21 129.922 21 126.636C21 123.35 18.0899 120.687 14.5 120.687C10.9102 120.687 8 123.35 8 126.636C8 129.922 10.9102 132.585 14.5 132.585Z" fill="#6ADEDC"/>
<path d="M623 13.5985C626.314 13.5985 629 11.3154 629 8.49909C629 5.68275 626.314 3.39966 623 3.39966C619.686 3.39966 617 5.68275 617 8.49909C617 11.3154 619.686 13.5985 623 13.5985Z" fill="#6ADEDC"/>
<path d="M155.5 13.5985C158.538 13.5985 161 11.3154 161 8.49909C161 5.68275 158.538 3.39966 155.5 3.39966C152.462 3.39966 150 5.68275 150 8.49909C150 11.3154 152.462 13.5985 155.5 13.5985Z" fill="#6ADEDC"/>
<path d="M810.5 169.981C813.538 169.981 816 168.079 816 165.732C816 163.385 813.538 161.482 810.5 161.482C807.462 161.482 805 163.385 805 165.732C805 168.079 807.462 169.981 810.5 169.981Z" fill="#6ADEDC"/>
<path d="M857.5 249.872C860.538 249.872 863 247.589 863 244.773C863 241.957 860.538 239.673 857.5 239.673C854.462 239.673 852 241.957 852 244.773C852 247.589 854.462 249.872 857.5 249.872Z" fill="#6ADEDC"/>
<path d="M764 90.0901C766.209 90.0901 768 88.5681 768 86.6905C768 84.813 766.209 83.2909 764 83.2909C761.791 83.2909 760 84.813 760 86.6905C760 88.5681 761.791 90.0901 764 90.0901Z" fill="#6ADEDC"/>
<path d="M717 50.9944C719.209 50.9944 721 49.4724 721 47.5948C721 45.7173 719.209 44.1952 717 44.1952C714.791 44.1952 713 45.7173 713 47.5948C713 49.4724 714.791 50.9944 717 50.9944Z" fill="#6ADEDC"/>
<path d="M857.5 207.377C859.433 207.377 861 206.235 861 204.827C861 203.419 859.433 202.278 857.5 202.278C855.567 202.278 854 203.419 854 204.827C854 206.235 855.567 207.377 857.5 207.377Z" fill="#6ADEDC"/>
<path d="M61 49.2946C63.2091 49.2946 65 48.1531 65 46.7449C65 45.3367 63.2091 44.1952 61 44.1952C58.7909 44.1952 57 45.3367 57 46.7449C57 48.1531 58.7909 49.2946 61 49.2946Z" fill="#6ADEDC"/>
<path d="M14.5 90.0901C16.433 90.0901 18 88.5681 18 86.6905C18 84.8129 16.433 83.2909 14.5 83.2909C12.567 83.2909 11 84.8129 11 86.6905C11 88.5681 12.567 90.0901 14.5 90.0901Z" fill="#6ADEDC"/>
<path d="M810.5 129.186C812.433 129.186 814 128.044 814 126.636C814 125.228 812.433 124.086 810.5 124.086C808.567 124.086 807 125.228 807 126.636C807 128.044 808.567 129.186 810.5 129.186Z" fill="#6ADEDC"/>
<path d="M108.5 10.1989C110.433 10.1989 112 9.05738 112 7.64921C112 6.24104 110.433 5.09949 108.5 5.09949C106.567 5.09949 105 6.24104 105 7.64921C105 9.05738 106.567 10.1989 108.5 10.1989Z" fill="#6ADEDC"/>
<path d="M670.5 10.1989C672.433 10.1989 674 9.05738 674 7.64921C674 6.24104 672.433 5.09949 670.5 5.09949C668.567 5.09949 667 6.24104 667 7.64921C667 9.05738 668.567 10.1989 670.5 10.1989Z" fill="#6ADEDC"/>
</svg>
